<svg width="16" height="16" viewBox="0 0 16 16" fill="none" xmlns="http://www.w3.org/2000/svg">
<g clip-path="url(#clip0_20_1944)">
<path d="M12.9998 5H2.99984C2.91143 5 2.82665 5.03512 2.76414 5.09763C2.70162 5.16014 2.6665 5.24493 2.6665 5.33333V14.6667C2.6665 15.0203 2.80698 15.3594 3.05703 15.6095C3.30708 15.8595 3.64622 16 3.99984 16H11.9998C12.3535 16 12.6926 15.8595 12.9426 15.6095C13.1927 15.3594 13.3332 15.0203 13.3332 14.6667V5.33333C13.3332 5.24493 13.2981 5.16014 13.2355 5.09763C13.173 5.03512 13.0882 5 12.9998 5ZM6.83317 13.6667C6.83317 13.7993 6.78049 13.9265 6.68672 14.0202C6.59296 14.114 6.46578 14.1667 6.33317 14.1667C6.20056 14.1667 6.07339 14.114 5.97962 14.0202C5.88585 13.9265 5.83317 13.7993 5.83317 13.6667V7.66667C5.83317 7.53406 5.88585 7.40688 5.97962 7.31311C6.07339 7.21935 6.20056 7.16667 6.33317 7.16667C6.46578 7.16667 6.59296 7.21935 6.68672 7.31311C6.78049 7.40688 6.83317 7.53406 6.83317 7.66667V13.6667ZM10.1665 13.6667C10.1665 13.7993 10.1138 13.9265 10.0201 14.0202C9.92629 14.114 9.79911 14.1667 9.6665 14.1667C9.5339 14.1667 9.40672 14.114 9.31295 14.0202C9.21918 13.9265 9.1665 13.7993 9.1665 13.6667V7.66667C9.1665 7.53406 9.21918 7.40688 9.31295 7.31311C9.40672 7.21935 9.5339 7.16667 9.6665 7.16667C9.79911 7.16667 9.92629 7.21935 10.0201 7.31311C10.1138 7.40688 10.1665 7.53406 10.1665 7.66667V13.6667Z" fill="#EC3535"/>
<path d="M14.6665 2.66667H11.4998C11.4556 2.66667 11.4132 2.64911 11.382 2.61785C11.3507 2.5866 11.3332 2.5442 11.3332 2.5V1.66667C11.3332 1.22464 11.1576 0.800716 10.845 0.488155C10.5325 0.175595 10.1085 0 9.6665 0L6.33317 0C5.89114 0 5.46722 0.175595 5.15466 0.488155C4.8421 0.800716 4.6665 1.22464 4.6665 1.66667V2.5C4.6665 2.5442 4.64894 2.5866 4.61769 2.61785C4.58643 2.64911 4.54404 2.66667 4.49984 2.66667H1.33317C1.15636 2.66667 0.98679 2.7369 0.861766 2.86193C0.736742 2.98695 0.666504 3.15652 0.666504 3.33333C0.666504 3.51014 0.736742 3.67971 0.861766 3.80474C0.98679 3.92976 1.15636 4 1.33317 4H14.6665C14.8433 4 15.0129 3.92976 15.1379 3.80474C15.2629 3.67971 15.3332 3.51014 15.3332 3.33333C15.3332 3.15652 15.2629 2.98695 15.1379 2.86193C15.0129 2.7369 14.8433 2.66667 14.6665 2.66667ZM5.99984 2.5V1.66667C5.99984 1.57826 6.03496 1.49348 6.09747 1.43096C6.15998 1.36845 6.24476 1.33333 6.33317 1.33333H9.6665C9.75491 1.33333 9.83969 1.36845 9.90221 1.43096C9.96472 1.49348 9.99984 1.57826 9.99984 1.66667V2.5C9.99984 2.5442 9.98228 2.5866 9.95102 2.61785C9.91977 2.64911 9.87737 2.66667 9.83317 2.66667H6.1665C6.1223 2.66667 6.07991 2.64911 6.04865 2.61785C6.0174 2.5866 5.99984 2.5442 5.99984 2.5Z" fill="#EC3535"/>
</g>
<defs>
<clipPath id="clip0_20_1944">
<rect width="16" height="16" fill="white"/>
</clipPath>
</defs>
</svg>
