<svg width="181" height="180" viewBox="0 0 181 180" fill="none" xmlns="http://www.w3.org/2000/svg">
<path d="M158.72 153.129C155.096 156.945 151.666 159.405 148.956 161.35C117.105 184.202 79.4177 177.541 71.4077 175.914C59.5791 173.512 36.7165 168.868 20.1867 149.428C-4.82051 120.02 -0.926717 73.6869 18.4709 43.0997C22.0188 37.5068 40.7613 6.45677 78.8558 1.47463C101.91 -1.53845 128.783 4.53913 148.245 20.8439C189.095 55.0742 186.187 124.214 158.72 153.129Z" fill="url(#paint0_linear_20_1977)"/>
<path d="M2.34814 174.036H79.4094V158.613H2.34814C3.999 158.613 3.999 174.036 2.34814 174.036Z" fill="#BDD0FB"/>
<path d="M79.4097 170.177V163.118C79.4097 160.63 77.8867 158.613 76.0083 158.613H2.67493C1.96549 158.613 1.28512 158.331 0.783469 157.83C0.281823 157.328 1.67602e-07 156.647 1.67602e-07 155.938C1.67602e-07 155.723 0.0856108 155.516 0.237998 155.363C0.390385 155.211 0.597064 155.125 0.812571 155.125H80.9602C82.7982 155.125 85.7174 158.018 85.7174 161.58V171.438C85.7174 174.799 82.8843 177.523 81.1531 177.523H1.23429C1.07218 177.523 0.911635 177.492 0.761846 177.43C0.612057 177.368 0.475956 177.277 0.361325 177.162C0.246694 177.047 0.155781 176.911 0.0937823 176.761C0.0317835 176.612 -8.43321e-05 176.451 1.67602e-07 176.289C-4.39879e-07 175.692 0.236951 175.119 0.658816 174.697C1.08068 174.274 1.65297 174.037 2.25 174.036H76.4956C78.1047 174.036 79.4097 172.308 79.4097 170.177Z" fill="url(#paint1_linear_20_1977)"/>
<path d="M77.2723 161.996H5.01825C4.96241 161.993 4.90986 161.968 4.87141 161.928C4.83295 161.887 4.81152 161.833 4.81152 161.777C4.81152 161.721 4.83295 161.668 4.87141 161.627C4.90986 161.586 4.96241 161.562 5.01825 161.559H77.2755C77.3313 161.562 77.3839 161.586 77.4223 161.627C77.4608 161.668 77.4822 161.721 77.4822 161.777C77.4822 161.833 77.4608 161.887 77.4223 161.928C77.3839 161.968 77.3313 161.993 77.2755 161.996H77.2723Z" fill="url(#paint2_linear_20_1977)"/>
<path d="M77.2723 164.285H5.01825C4.96241 164.282 4.90986 164.258 4.87141 164.217C4.83295 164.176 4.81152 164.123 4.81152 164.067C4.81152 164.011 4.83295 163.957 4.87141 163.916C4.90986 163.876 4.96241 163.851 5.01825 163.848H77.2755C77.3313 163.851 77.3839 163.876 77.4223 163.916C77.4608 163.957 77.4822 164.011 77.4822 164.067C77.4822 164.123 77.4608 164.176 77.4223 164.217C77.3839 164.258 77.3313 164.282 77.2755 164.285H77.2723Z" fill="url(#paint3_linear_20_1977)"/>
<path d="M77.2723 166.574H5.01825C4.96241 166.571 4.90986 166.547 4.87141 166.506C4.83295 166.466 4.81152 166.412 4.81152 166.356C4.81152 166.3 4.83295 166.246 4.87141 166.206C4.90986 166.165 4.96241 166.141 5.01825 166.138H77.2755C77.3313 166.141 77.3839 166.165 77.4223 166.206C77.4608 166.246 77.4822 166.3 77.4822 166.356C77.4822 166.412 77.4608 166.466 77.4223 166.506C77.3839 166.547 77.3313 166.571 77.2755 166.574H77.2723Z" fill="url(#paint4_linear_20_1977)"/>
<path d="M77.2723 168.863H5.01825C4.96241 168.86 4.90986 168.836 4.87141 168.795C4.83295 168.755 4.81152 168.701 4.81152 168.645C4.81152 168.589 4.83295 168.535 4.87141 168.495C4.90986 168.454 4.96241 168.43 5.01825 168.427H77.2755C77.3313 168.43 77.3839 168.454 77.4223 168.495C77.4608 168.535 77.4822 168.589 77.4822 168.645C77.4822 168.701 77.4608 168.755 77.4223 168.795C77.3839 168.836 77.3313 168.86 77.2755 168.863H77.2723Z" fill="url(#paint5_linear_20_1977)"/>
<path d="M77.2722 171.153H5.01822C4.96042 171.153 4.90499 171.13 4.86412 171.089C4.82325 171.048 4.80029 170.993 4.80029 170.935C4.80029 170.877 4.82325 170.821 4.86412 170.781C4.90499 170.74 4.96042 170.717 5.01822 170.717H77.2754C77.3332 170.717 77.3887 170.74 77.4295 170.781C77.4704 170.821 77.4934 170.877 77.4934 170.935C77.4934 170.993 77.4704 171.048 77.4295 171.089C77.3887 171.13 77.3332 171.153 77.2754 171.153H77.2722Z" fill="url(#paint6_linear_20_1977)"/>
<path d="M75.0633 138.183H12.9163C10.4943 138.183 8.53076 140.146 8.53076 142.568V150.916C8.53076 153.338 10.4943 155.302 12.9163 155.302H75.0633C77.4854 155.302 79.4489 153.338 79.4489 150.916V142.568C79.4489 140.146 77.4854 138.183 75.0633 138.183Z" fill="#7D97F4"/>
<path d="M63.569 153.334H70.9696C71.2267 153.334 71.4351 153.126 71.4351 152.869V140.616C71.4351 140.359 71.2267 140.151 70.9696 140.151H63.569C63.312 140.151 63.1036 140.359 63.1036 140.616V152.869C63.1036 153.126 63.312 153.334 63.569 153.334Z" fill="url(#paint7_linear_20_1977)"/>
<path d="M58.9872 153.334H61.6415C61.7718 153.334 61.8774 153.229 61.8774 153.099V140.387C61.8774 140.256 61.7718 140.151 61.6415 140.151H58.9872C58.8569 140.151 58.7512 140.256 58.7512 140.387V153.099C58.7512 153.229 58.8569 153.334 58.9872 153.334Z" fill="url(#paint8_linear_20_1977)"/>
<path d="M73.2556 95.1803C73.2556 95.1803 55.8663 34.3286 24.1342 2.15102C22.0006 -0.0121961 18.3215 1.02859 17.6536 3.99088C13.1908 23.8089 5.62698 83.6493 73.2556 95.1803Z" fill="#BDD0FB"/>
<path d="M66.9441 91.4941C66.9749 91.5227 66.9939 91.5618 66.9972 91.6037C67.0006 91.6456 66.9881 91.6872 66.9622 91.7203C66.9364 91.7535 66.899 91.7757 66.8576 91.7826C66.8161 91.7895 66.7736 91.7806 66.7384 91.7577C60.3143 87.4216 35.2551 65.8171 24.3162 20.9791C24.3071 20.9494 24.3101 20.9173 24.3246 20.8899C24.3392 20.8625 24.364 20.8419 24.3937 20.8328C24.4233 20.8237 24.4554 20.8267 24.4828 20.8412C24.5103 20.8558 24.5308 20.8806 24.5399 20.9103C28.0358 31.2596 42.1343 69.3676 66.9441 91.4941Z" fill="url(#paint9_linear_20_1977)"/>
<path d="M87.1298 140.58C87.1298 140.58 53.0513 71.4523 8.02485 39.8005C4.99827 37.6727 0.815197 39.7189 0.660911 43.4153C-0.37409 68.1339 3.58399 141.483 87.1298 140.58Z" fill="#91B3FA"/>
<path d="M78.7661 137.537C78.8115 137.563 78.8449 137.606 78.8594 137.657C78.8739 137.707 78.8684 137.761 78.8441 137.808C78.8197 137.854 78.7784 137.889 78.7286 137.906C78.6789 137.923 78.6246 137.92 78.5771 137.898C69.9358 134.1 35.2074 113.667 12.3409 62.3206C12.2676 62.1554 12.5068 62.0313 12.5942 62.192C19.035 73.8297 44.2228 116.422 78.7661 137.537Z" fill="#BDD0FB"/>
<path d="M28.2239 12.2787C28.2182 11.7889 28.3178 11.3037 28.5159 10.8558C28.714 10.4079 29.006 10.0077 29.3721 9.68241C29.7383 9.35711 30.17 9.11425 30.6381 8.97025C31.1062 8.82625 31.5998 8.78448 32.0855 8.84776C45.7675 10.6304 92.8131 16.1204 131.67 12.9344C132.09 12.8991 132.513 12.9483 132.914 13.079C133.315 13.2097 133.686 13.4194 134.005 13.6956C134.324 13.9718 134.584 14.309 134.77 14.6874C134.957 15.0657 135.066 15.4776 135.091 15.8986L143.599 161.662C143.655 162.622 143.329 163.565 142.692 164.286C142.055 165.006 141.159 165.445 140.199 165.507C123.856 166.56 56.545 170.65 32.5169 168.26C31.8106 168.189 31.1553 167.86 30.6765 167.336C30.1976 166.812 29.9289 166.13 29.9216 165.42L28.2239 12.2787Z" fill="#7D97F4"/>
<path d="M29.8537 15.9224C29.8482 15.4511 29.944 14.9841 30.1346 14.553C30.3252 14.122 30.6061 13.7369 30.9584 13.4237C31.3107 13.1106 31.7262 12.8769 32.1766 12.7382C32.6271 12.5995 33.1021 12.5592 33.5695 12.62C46.7365 14.3358 92.0104 19.6195 129.404 16.553C129.809 16.519 130.216 16.5664 130.602 16.6922C130.988 16.818 131.345 17.0198 131.651 17.2857C131.958 17.5515 132.209 17.8761 132.388 18.2402C132.568 18.6044 132.672 19.0008 132.696 19.406L140.884 159.681C140.939 160.605 140.625 161.512 140.012 162.206C139.399 162.899 138.537 163.322 137.613 163.381C121.885 164.394 57.109 168.331 33.9847 166.03C33.3052 165.961 32.6747 165.645 32.214 165.141C31.7533 164.636 31.4947 163.98 31.4879 163.297L29.8537 15.9224Z" fill="#BDD0FB"/>
<path opacity="0.78" d="M42.0906 26.6787L43.6444 56.7535C43.669 57.2353 43.8747 57.6901 44.2205 58.0265C44.5662 58.363 45.0264 58.5563 45.5087 58.5677C51.0804 58.6963 68.4427 59.0292 78.2424 58.4674C78.7767 58.4363 79.28 58.2059 79.6526 57.8217C80.0252 57.4374 80.24 56.9273 80.2545 56.3922C80.412 50.7499 80.7354 34.3274 79.4143 27.4701C79.3097 26.9327 79.0252 26.447 78.6077 26.0928C78.1903 25.7386 77.6646 25.5372 77.1174 25.5216L44.1819 24.5412C43.901 24.5327 43.6214 24.5826 43.3608 24.6876C43.1001 24.7927 42.8641 24.9506 42.6676 25.1515C42.4711 25.3523 42.3184 25.5918 42.2191 25.8546C42.1198 26.1175 42.076 26.3981 42.0906 26.6787Z" fill="white"/>
<path d="M67.5386 37.8218C67.8101 34.2608 65.1434 31.1539 61.5824 30.8824C58.0213 30.6109 54.9145 33.2776 54.643 36.8386C54.3715 40.3996 57.0381 43.5065 60.5992 43.778C64.1602 44.0495 67.267 41.3828 67.5386 37.8218Z" fill="url(#paint10_linear_20_1977)"/>
<path d="M51.3707 56.3702L71.9731 56.2628C73.2363 56.2564 73.9858 54.8576 73.2999 53.7968C71.5359 51.0679 67.8536 47.0642 61.5138 47.2783C55.4066 47.4853 51.7995 51.1354 49.9925 53.7531C49.2249 54.8633 50.0214 56.3786 51.3707 56.3702Z" fill="url(#paint11_linear_20_1977)"/>
<g opacity="0.6">
<path opacity="0.6" d="M124.632 28.8643C124.765 28.8654 124.896 28.8398 125.019 28.7889C125.141 28.7381 125.252 28.6631 125.345 28.5684C125.438 28.4737 125.511 28.3613 125.559 28.2379C125.608 28.1144 125.631 27.9825 125.627 27.8499C125.612 27.5766 125.493 27.3192 125.296 27.1297C125.098 26.9402 124.836 26.8325 124.563 26.8284L88.1627 26.3687C87.5964 26.3617 87.2891 26.7924 87.48 27.3253L87.7526 28.0852C87.9455 28.6181 88.5626 29.0495 89.129 29.0495L124.632 28.8643Z" fill="white"/>
</g>
<g opacity="0.6">
<path opacity="0.6" d="M88.1925 31.9784C87.6262 31.9713 87.3189 32.4014 87.5098 32.9349L87.7817 33.6941C87.9746 34.2277 88.5924 34.6584 89.1587 34.6584L124.661 34.4739C124.794 34.475 124.925 34.4494 125.048 34.3985C125.17 34.3477 125.281 34.2727 125.374 34.178C125.467 34.0833 125.54 33.9709 125.588 33.8475C125.637 33.724 125.66 33.5921 125.656 33.4595C125.641 33.1861 125.523 32.9287 125.325 32.7391C125.128 32.5494 124.866 32.4416 124.592 32.4374L88.1925 31.9784Z" fill="white"/>
</g>
<g opacity="0.6">
<path opacity="0.6" d="M88.2218 37.6676C87.6555 37.6605 87.3482 38.0912 87.5391 38.6241L87.811 39.384C88.0039 39.9169 88.6217 40.3483 89.188 40.3483L124.691 40.1638C124.823 40.1649 124.955 40.1392 125.077 40.0884C125.2 40.0376 125.311 39.9626 125.403 39.8679C125.496 39.7732 125.569 39.6608 125.618 39.5373C125.666 39.4139 125.689 39.2819 125.686 39.1494C125.67 38.8761 125.552 38.6188 125.355 38.4292C125.157 38.2395 124.895 38.1317 124.622 38.1272L88.2218 37.6676Z" fill="white"/>
</g>
<g opacity="0.6">
<path opacity="0.6" d="M128.341 67.5824C128.472 67.5846 128.602 67.5595 128.723 67.5086C128.844 67.4577 128.953 67.3821 129.043 67.2867C129.134 67.1914 129.203 67.0782 129.247 66.9546C129.291 66.8309 129.308 66.6995 129.299 66.5686C129.26 66.0138 128.764 65.5587 128.198 65.5568L43.3114 65.3298C42.745 65.3298 42.5721 65.6879 42.9257 66.1289L43.8012 67.2173C44.1561 67.6583 44.9102 68.017 45.4765 68.0138L128.341 67.5824Z" fill="white"/>
</g>
<g opacity="0.6">
<path opacity="0.6" d="M43.3407 70.9373C42.7743 70.9373 42.6014 71.2953 42.955 71.737L43.8305 72.8247C44.186 73.2657 44.9395 73.6244 45.5058 73.6218L128.37 73.1905C128.501 73.1925 128.632 73.1672 128.753 73.1162C128.873 73.0652 128.982 72.9896 129.073 72.8942C129.163 72.7988 129.232 72.6856 129.276 72.562C129.32 72.4384 129.338 72.3069 129.328 72.176C129.288 71.6213 128.793 71.1661 128.226 71.1648L43.3407 70.9373Z" fill="white"/>
</g>
<path opacity="0.6" d="M43.1512 80.3032C45.1839 80.1367 48.9929 80.0461 51.0892 80.0043C51.5203 79.9955 51.9417 80.1335 52.284 80.3958C52.6262 80.658 52.8692 81.0289 52.9728 81.4475C53.3861 83.1234 53.9596 86.033 53.9056 89.12C53.8986 89.5641 53.7169 89.9876 53.3998 90.2985C53.0827 90.6095 52.6558 90.7829 52.2116 90.7812L44.4736 90.7381C44.0141 90.7355 43.5719 90.5628 43.2324 90.2533C42.8928 89.9438 42.68 89.5194 42.635 89.0622L41.9169 81.7869C41.899 81.6082 41.9168 81.4277 41.9694 81.2559C42.0219 81.0841 42.1082 80.9245 42.2231 80.7864C42.338 80.6483 42.4792 80.5344 42.6386 80.4515C42.7979 80.3685 42.9722 80.3181 43.1512 80.3032Z" fill="white"/>
<g opacity="0.6">
<path opacity="0.6" d="M57.3319 83.2124C56.7655 83.1918 56.374 83.6328 56.4608 84.1927L56.6986 85.7227C56.7504 86.0021 56.8967 86.2552 57.113 86.4395C57.3294 86.6238 57.6025 86.728 57.8866 86.7346L76.9654 86.6356C77.1 86.6348 77.2331 86.6074 77.357 86.5548C77.4809 86.5022 77.5931 86.4256 77.6872 86.3293C77.7812 86.233 77.8553 86.119 77.9049 85.994C77.9546 85.8689 77.979 85.7352 77.9766 85.6006L77.9657 84.9963C77.9573 84.7193 77.8448 84.4557 77.6507 84.2579C77.4567 84.0602 77.1952 83.9428 76.9184 83.9291L57.3319 83.2124Z" fill="white"/>
</g>
<path opacity="0.6" d="M85.3034 80.084C87.3367 79.9175 91.145 79.8269 93.2414 79.7851C93.6725 79.7761 94.0939 79.9141 94.4362 80.1764C94.7786 80.4387 95.0214 80.8097 95.125 81.2283C95.5383 82.9042 96.1117 85.8138 96.0577 88.9008C96.0508 89.3449 95.8691 89.7683 95.552 90.0793C95.2349 90.3903 94.808 90.5637 94.3638 90.5619L86.6257 90.5189C86.1663 90.5162 85.7242 90.3434 85.3847 90.0339C85.0452 89.7244 84.8323 89.3001 84.7872 88.8429L84.0691 81.5677C84.0507 81.3889 84.0682 81.2082 84.1206 81.0362C84.173 80.8642 84.2592 80.7045 84.3742 80.5663C84.4891 80.4281 84.6306 80.3142 84.7901 80.2314C84.9497 80.1486 85.1242 80.0985 85.3034 80.084Z" fill="white"/>
<g opacity="0.6">
<path opacity="0.6" d="M99.4842 82.9929C98.9185 82.9723 98.5263 83.4133 98.6131 83.9726L98.851 85.5026C98.9027 85.7821 99.049 86.0353 99.2653 86.2196C99.4816 86.404 99.7548 86.5083 100.039 86.5151L119.118 86.4155C119.252 86.4148 119.385 86.3874 119.509 86.3349C119.633 86.2824 119.745 86.2058 119.839 86.1096C119.934 86.0134 120.008 85.8994 120.057 85.7744C120.107 85.6493 120.131 85.5156 120.129 85.3811L120.119 84.7768C120.11 84.4999 119.997 84.2365 119.803 84.0388C119.609 83.8411 119.348 83.7236 119.071 83.7097L99.4842 82.9929Z" fill="white"/>
</g>
<path d="M54.2182 109.126H54.1989L47.0587 109.094C46.0385 109.09 45.1944 108.392 45.0915 107.473L44.4326 101.486C44.4139 101.31 44.4311 101.133 44.4832 100.964C44.5352 100.795 44.621 100.639 44.7354 100.505C44.8718 100.345 45.0388 100.215 45.2265 100.121C45.4143 100.028 45.6189 99.973 45.8282 99.9601C46.4293 99.9157 47.276 99.8392 48.1727 99.7582C50.0602 99.5872 52.4092 99.3725 53.7315 99.3519C54.6907 99.3423 55.5077 99.9054 55.7379 100.74C56.1172 102.113 56.0979 104.717 56.0413 107.49C56.0201 108.391 55.2056 109.121 54.2182 109.126ZM45.8649 100.507C45.7297 100.515 45.5975 100.55 45.4761 100.61C45.3546 100.67 45.2464 100.753 45.1577 100.856C45.0908 100.933 45.0403 101.024 45.0095 101.122C44.9787 101.22 44.9681 101.323 44.9784 101.425L45.6373 107.412C45.708 108.055 46.3207 108.543 47.0619 108.547L54.2021 108.578H54.2162C54.908 108.574 55.4788 108.084 55.491 107.479C55.5463 104.747 55.5662 102.188 55.2069 100.886C55.0455 100.302 54.4355 99.8984 53.7386 99.8996C52.4362 99.9228 50.0981 100.134 48.2197 100.304C47.3197 100.386 46.4717 100.462 45.8655 100.507H45.8649Z" fill="white"/>
<path opacity="0.6" d="M46.6359 101.122C48.1357 101.011 51.3931 100.663 52.9398 100.636C53.5949 100.625 54.1715 101.017 54.3277 101.584C54.6324 102.686 54.6041 104.886 54.563 106.916C54.5508 107.524 53.9947 108.012 53.3127 108.009L47.6073 107.983C46.9053 107.983 46.3216 107.505 46.2515 106.882L45.725 102.097C45.671 101.602 46.0805 101.162 46.6359 101.122Z" fill="white"/>
<g opacity="0.6">
<path opacity="0.6" d="M60.4684 105.116C60.571 105.496 60.7973 105.831 61.1116 106.069C61.4259 106.306 61.8102 106.432 62.2041 106.427L128.261 105.52C128.616 105.517 128.956 105.374 129.206 105.12C129.455 104.867 129.594 104.525 129.592 104.17C129.589 103.814 129.445 103.474 129.192 103.225C128.939 102.975 128.597 102.837 128.242 102.839L62.1784 102.882C61.9064 102.882 61.6381 102.945 61.3942 103.065C61.1504 103.186 60.9376 103.361 60.7722 103.577C60.6069 103.793 60.4935 104.044 60.4408 104.311C60.3881 104.577 60.3975 104.853 60.4684 105.116Z" fill="white"/>
</g>
<path d="M54.2978 124.428H54.2785L47.1383 124.397C46.1181 124.392 45.274 123.695 45.1711 122.775L44.5122 116.787C44.4935 116.612 44.5107 116.434 44.5628 116.266C44.6148 116.097 44.7006 115.941 44.815 115.807C44.9514 115.648 45.1184 115.517 45.3061 115.423C45.4939 115.33 45.6985 115.275 45.9078 115.262C46.5089 115.218 47.3556 115.141 48.2524 115.06C50.1398 114.89 52.4888 114.674 53.8111 114.654H53.8394C54.7786 114.648 55.5893 115.216 55.8175 116.042C56.1968 117.415 56.1775 120.018 56.1209 122.792C56.0997 123.693 55.2852 124.423 54.2978 124.428ZM45.9445 115.809C45.8094 115.817 45.6772 115.852 45.5558 115.912C45.4343 115.972 45.3261 116.055 45.2373 116.157C45.1705 116.235 45.1202 116.326 45.0895 116.424C45.0588 116.522 45.0483 116.625 45.0586 116.727L45.7176 122.714C45.7883 123.357 46.4009 123.845 47.1421 123.848L54.2824 123.88H54.2965C54.9882 123.876 55.5591 123.386 55.5713 122.781C55.6266 120.049 55.6465 117.49 55.2871 116.187C55.1258 115.604 54.5067 115.187 53.8189 115.202C52.5164 115.225 50.1784 115.437 48.2993 115.606C47.3993 115.687 46.552 115.764 45.9458 115.809H45.9445Z" fill="white"/>
<path opacity="0.6" d="M46.716 116.422C48.2152 116.311 51.4732 115.963 53.0199 115.936C53.6749 115.924 54.2516 116.317 54.4078 116.884C54.7119 117.986 54.6842 120.185 54.6431 122.216C54.6302 122.824 54.0748 123.312 53.3927 123.308L47.6867 123.283C46.9854 123.28 46.401 122.805 46.3316 122.182L45.8051 117.398C45.7511 116.905 46.1606 116.464 46.716 116.422Z" fill="white"/>
<g opacity="0.6">
<path opacity="0.6" d="M60.5483 120.417C60.6507 120.798 60.8769 121.133 61.1912 121.371C61.5055 121.609 61.89 121.735 62.284 121.73L128.341 120.822C128.692 120.813 129.024 120.666 129.268 120.413C129.512 120.161 129.647 119.823 129.644 119.472C129.642 119.121 129.502 118.786 129.255 118.537C129.007 118.288 128.672 118.146 128.322 118.141L62.2583 118.184C61.9863 118.184 61.7181 118.247 61.4743 118.367C61.2305 118.488 61.0177 118.663 60.8524 118.879C60.6871 119.095 60.5737 119.346 60.521 119.613C60.4682 119.88 60.4776 120.155 60.5483 120.417Z" fill="white"/>
</g>
<path d="M54.3774 139.73H54.3581L47.2198 139.699C46.1996 139.695 45.3555 138.997 45.2527 138.077L44.5937 132.09C44.5751 131.914 44.5923 131.737 44.6443 131.568C44.6964 131.4 44.7822 131.243 44.8965 131.109C45.0329 130.95 45.1999 130.819 45.3877 130.726C45.5754 130.632 45.78 130.577 45.9894 130.564C46.5904 130.52 47.4371 130.444 48.3332 130.363C50.2213 130.192 52.5703 129.977 53.8927 129.956H53.9209C54.8602 129.952 55.6708 130.519 55.899 131.345C56.2783 132.718 56.259 135.322 56.2025 138.095C56.1793 138.995 55.3648 139.725 54.3774 139.73ZM46.0241 131.112C45.8889 131.12 45.7567 131.154 45.6353 131.214C45.5139 131.274 45.4056 131.358 45.3169 131.46C45.25 131.538 45.1996 131.629 45.1689 131.727C45.1382 131.825 45.1277 131.928 45.1382 132.03L45.7972 138.017C45.8679 138.66 46.4805 139.148 47.2217 139.151L54.3619 139.182H54.3761C55.0678 139.179 55.638 138.688 55.6509 138.083C55.7062 135.352 55.7261 132.793 55.3667 131.49C55.2054 130.906 54.5863 130.488 53.8985 130.505C52.596 130.528 50.2579 130.739 48.3789 130.908C47.4789 130.99 46.6309 131.067 46.0254 131.112H46.0241Z" fill="white"/>
<path opacity="0.6" d="M46.7957 131.726C48.2949 131.616 51.5529 131.267 53.0996 131.24C53.7546 131.229 54.3313 131.621 54.4875 132.188C54.7916 133.29 54.7639 135.49 54.7221 137.52C54.7099 138.128 54.1545 138.613 53.4724 138.613L47.7664 138.587C47.0651 138.587 46.4807 138.109 46.4113 137.486L45.8848 132.701C45.8301 132.207 46.2396 131.767 46.7957 131.726Z" fill="white"/>
<g opacity="0.6">
<path opacity="0.6" d="M60.6281 135.72C60.7306 136.1 60.9568 136.436 61.2711 136.673C61.5854 136.911 61.9699 137.037 62.3638 137.031L128.421 136.124C128.776 136.122 129.116 135.978 129.366 135.725C129.615 135.472 129.754 135.13 129.751 134.774C129.749 134.419 129.605 134.079 129.352 133.829C129.099 133.58 128.757 133.441 128.401 133.444L62.3381 133.486C62.0661 133.486 61.7977 133.549 61.5539 133.67C61.3101 133.79 61.0972 133.965 60.9319 134.181C60.7666 134.397 60.6531 134.648 60.6005 134.915C60.5478 135.182 60.5572 135.457 60.6281 135.72Z" fill="white"/>
</g>
<path d="M54.4569 155.033H54.4377L47.2974 155.001C46.2772 154.997 45.4332 154.3 45.3303 153.38L44.6714 147.393C44.6527 147.217 44.6699 147.04 44.722 146.871C44.774 146.702 44.8598 146.546 44.9741 146.412C45.1098 146.252 45.2761 146.122 45.463 146.028C45.6499 145.934 45.8538 145.878 46.0625 145.865C46.6642 145.821 47.5109 145.744 48.407 145.663C50.2944 145.492 52.6441 145.278 53.9658 145.256H53.9947C54.9339 145.251 55.7446 145.819 55.9728 146.645C56.3515 148.018 56.3328 150.621 56.2762 153.395C56.2589 154.298 55.4444 155.028 54.4569 155.033ZM46.1037 146.414C45.9685 146.422 45.8363 146.456 45.7149 146.516C45.5934 146.576 45.4852 146.66 45.3965 146.762C45.3296 146.84 45.2792 146.931 45.2485 147.029C45.2178 147.127 45.2073 147.23 45.2178 147.332L45.8767 153.319C45.9474 153.962 46.5594 154.45 47.3013 154.453L54.4415 154.485H54.4557C55.1474 154.481 55.7176 153.99 55.7298 153.385C55.7857 150.654 55.8057 148.095 55.4463 146.792C55.2849 146.209 54.6659 145.788 53.9774 145.807C52.6756 145.83 50.3375 146.041 48.4584 146.211C47.5584 146.292 46.7105 146.369 46.1049 146.414H46.1037Z" fill="white"/>
<path opacity="0.6" d="M46.8755 147.028C48.3747 146.917 51.6327 146.57 53.1755 146.542C53.8306 146.53 54.4072 146.923 54.5641 147.491C54.8682 148.593 54.8399 150.792 54.7988 152.822C54.7865 153.43 54.2311 153.918 53.549 153.915L47.843 153.89C47.1417 153.89 46.5573 153.412 46.4879 152.789L45.9614 148.004C45.91 147.509 46.3201 147.069 46.8755 147.028Z" fill="white"/>
<g opacity="0.6">
<path opacity="0.6" d="M60.7076 151.022C60.8103 151.402 61.0366 151.738 61.3508 151.975C61.6651 152.213 62.0495 152.339 62.4434 152.333L128.5 151.426C128.856 151.424 129.196 151.28 129.445 151.027C129.695 150.774 129.833 150.432 129.831 150.076C129.828 149.721 129.685 149.381 129.432 149.131C129.178 148.882 128.836 148.743 128.481 148.746L62.4176 148.788C62.1456 148.788 61.8773 148.851 61.6335 148.972C61.3896 149.092 61.1768 149.267 61.0115 149.483C60.8461 149.699 60.7327 149.95 60.68 150.217C60.6274 150.484 60.6368 150.759 60.7076 151.022Z" fill="white"/>
</g>
<path d="M47.1841 147.966C47.3097 147.891 47.449 147.843 47.5937 147.823C47.7384 147.803 47.8856 147.812 48.0267 147.85C48.1678 147.888 48.3 147.953 48.4154 148.043C48.5307 148.133 48.6271 148.244 48.6986 148.372L50.12 150.889C50.152 150.946 50.1993 150.993 50.2564 151.024C50.3136 151.056 50.3784 151.071 50.4436 151.068C50.5087 151.064 50.5718 151.043 50.6255 151.006C50.6793 150.969 50.7217 150.918 50.7481 150.858L54.2009 143.064C54.3731 142.675 54.9511 142.803 54.9472 143.228C54.9234 145.607 54.3159 150.132 50.5353 153.936C50.5353 153.936 48.4364 153.133 46.7309 149.436C46.6112 149.178 46.5913 148.886 46.675 148.614C46.7587 148.342 46.9401 148.112 47.1841 147.966Z" fill="url(#paint12_linear_20_1977)"/>
<path d="M36.8498 21.3564C36.8441 20.8667 36.9436 20.3814 37.1416 19.9335C37.3396 19.4855 37.6316 19.0853 37.9976 18.76C38.3637 18.4346 38.7954 18.1917 39.2635 18.0476C39.7316 17.9035 40.2252 17.8616 40.7108 17.9248C54.3928 19.7081 101.438 25.2 140.295 22.0115C140.716 21.9762 141.139 22.0254 141.54 22.1561C141.941 22.2869 142.312 22.4966 142.631 22.7729C142.95 23.0491 143.21 23.3864 143.396 23.7649C143.583 24.1433 143.692 24.5552 143.717 24.9763L152.224 170.743C152.281 171.703 151.955 172.646 151.318 173.367C150.681 174.087 149.785 174.526 148.825 174.588C132.481 175.64 65.1709 179.731 41.1422 177.341C40.436 177.27 39.7808 176.941 39.302 176.417C38.8233 175.893 38.5547 175.21 38.5476 174.501L36.8498 21.3564Z" fill="#7D97F4"/>
<path d="M38.4768 25.0014C38.4713 24.5301 38.567 24.0632 38.7576 23.6321C38.9482 23.2011 39.2292 22.816 39.5815 22.503C39.9338 22.1899 40.3492 21.9562 40.7997 21.8176C41.2502 21.679 41.7252 21.6388 42.1925 21.6997C55.3589 23.4155 100.633 28.6985 138.027 25.6321C138.432 25.5982 138.839 25.6455 139.225 25.7714C139.611 25.8973 139.968 26.0991 140.274 26.3649C140.581 26.6307 140.832 26.9553 141.011 27.3194C141.191 27.6835 141.295 28.0798 141.319 28.4851L149.507 168.76C149.561 169.684 149.247 170.591 148.635 171.285C148.022 171.978 147.159 172.401 146.236 172.46C130.507 173.473 65.7314 177.41 42.6071 175.109C41.9275 175.041 41.297 174.724 40.8363 174.22C40.3756 173.715 40.1171 173.059 40.1103 172.376L38.4768 25.0014Z" fill="#BDD0FB"/>
<path d="M62.3461 112.238H62.3268L55.1866 112.207C54.1664 112.202 53.3223 111.505 53.2195 110.585L52.5605 104.597C52.5418 104.422 52.5591 104.245 52.6111 104.076C52.6632 103.908 52.749 103.751 52.8633 103.617C52.9998 103.458 53.1668 103.327 53.3545 103.234C53.5422 103.14 53.7468 103.085 53.9562 103.072C54.5573 103.028 55.4039 102.952 56.3007 102.871C58.1881 102.7 60.5371 102.485 61.8595 102.464C62.8186 102.454 63.6357 103.018 63.8658 103.852C64.2451 105.225 64.2258 107.828 64.1693 110.602C64.1481 111.503 63.3336 112.233 62.3461 112.238ZM53.9928 103.619C53.8577 103.627 53.7255 103.662 53.6041 103.722C53.4827 103.782 53.3744 103.865 53.2857 103.967C53.2187 104.045 53.1683 104.136 53.1374 104.234C53.1066 104.332 53.096 104.435 53.1063 104.538L53.7653 110.525C53.836 111.167 54.4486 111.655 55.1898 111.659L62.3301 111.69H62.3442C63.0359 111.686 63.6068 111.196 63.619 110.591C63.6743 107.859 63.6942 105.3 63.3348 103.998C63.1735 103.415 62.5634 103.011 61.8666 103.012C60.5641 103.035 58.226 103.247 56.3476 103.416C55.4476 103.498 54.5997 103.575 53.9935 103.619H53.9928Z" fill="white"/>
<path opacity="0.6" d="M54.7643 104.234C56.2641 104.123 59.5215 103.775 61.0682 103.748C61.7233 103.736 62.2999 104.129 62.4561 104.696C62.7609 105.798 62.7326 107.997 62.6914 110.028C62.6786 110.636 62.1231 111.124 61.4411 111.12L55.7357 111.095C55.0337 111.095 54.45 110.617 54.3799 109.994L53.8534 105.21C53.7994 104.715 54.2089 104.271 54.7643 104.234Z" fill="white"/>
<g opacity="0.6">
<path opacity="0.6" d="M68.5968 108.228C68.6994 108.609 68.9257 108.944 69.24 109.181C69.5543 109.419 69.9387 109.545 70.3325 109.54L136.389 108.633C136.745 108.63 137.085 108.486 137.334 108.233C137.584 107.98 137.723 107.638 137.72 107.283C137.718 106.927 137.574 106.587 137.321 106.338C137.068 106.088 136.726 105.949 136.37 105.952L70.3068 105.994C70.0348 105.995 69.7665 106.057 69.5226 106.178C69.2788 106.298 69.066 106.473 68.9006 106.689C68.7353 106.905 68.6219 107.157 68.5692 107.423C68.5165 107.69 68.526 107.966 68.5968 108.228Z" fill="white"/>
</g>
<path d="M62.4262 130.027H62.4069L55.2667 129.996C54.2465 129.991 53.4024 129.294 53.2995 128.374L52.6406 122.386C52.6219 122.211 52.6391 122.033 52.6912 121.865C52.7432 121.696 52.8291 121.54 52.9434 121.406C53.0798 121.246 53.2468 121.116 53.4346 121.022C53.6223 120.929 53.8269 120.874 54.0363 120.861C54.6373 120.817 55.484 120.74 56.3801 120.659C58.2682 120.488 60.6172 120.274 61.9396 120.252H61.9678C62.9071 120.247 63.7177 120.815 63.9459 121.641C64.3252 123.014 64.3059 125.617 64.2493 128.391C64.2281 129.292 63.4136 130.022 62.4262 130.027ZM54.0729 121.408C53.9378 121.416 53.8056 121.451 53.6842 121.511C53.5628 121.57 53.4545 121.654 53.3658 121.756C53.2989 121.834 53.2486 121.925 53.2178 122.023C53.1871 122.121 53.1766 122.224 53.187 122.326L53.846 128.313C53.9167 128.956 54.5293 129.444 55.2706 129.447L62.4108 129.479H62.4249C63.1166 129.475 63.6868 128.984 63.6997 128.379C63.755 125.648 63.7749 123.089 63.4156 121.786C63.2542 121.203 62.6351 120.787 61.9473 120.801C60.6448 120.824 58.3068 121.035 56.4277 121.205C55.5277 121.286 54.6804 121.363 54.0742 121.408H54.0729Z" fill="white"/>
<path opacity="0.6" d="M54.8444 122.022C56.3435 121.912 59.6015 121.564 61.1483 121.536C61.8033 121.525 62.38 121.917 62.5362 122.485C62.8403 123.587 62.8126 125.786 62.7715 127.816C62.7586 128.424 62.2032 128.912 61.5211 128.909L55.8151 128.884C55.1137 128.884 54.5294 128.406 54.46 127.783L53.9335 122.999C53.8795 122.504 54.2915 122.063 54.8444 122.022Z" fill="white"/>
<g opacity="0.6">
<path opacity="0.6" d="M68.6767 126.016C68.7791 126.397 69.0053 126.732 69.3196 126.97C69.6339 127.207 70.0184 127.334 70.4124 127.328L136.469 126.421C136.645 126.42 136.819 126.384 136.981 126.316C137.144 126.247 137.291 126.147 137.414 126.022C137.538 125.896 137.635 125.748 137.702 125.585C137.768 125.422 137.801 125.247 137.8 125.071C137.799 124.895 137.763 124.721 137.694 124.559C137.626 124.397 137.526 124.25 137.401 124.126C137.275 124.003 137.127 123.905 136.964 123.839C136.801 123.773 136.626 123.739 136.45 123.741L70.3867 123.783C70.1148 123.783 69.8465 123.846 69.6028 123.966C69.359 124.087 69.1462 124.262 68.9809 124.478C68.8155 124.694 68.7021 124.945 68.6494 125.212C68.5966 125.478 68.606 125.754 68.6767 126.016Z" fill="white"/>
</g>
<path d="M62.5058 148.564H62.4865L55.3463 148.533C54.326 148.529 53.482 147.831 53.3791 146.911L52.7202 140.924C52.7015 140.748 52.7187 140.571 52.7708 140.402C52.8228 140.234 52.9086 140.077 53.023 139.943C53.1593 139.784 53.3263 139.653 53.5141 139.56C53.7018 139.466 53.9065 139.411 54.1158 139.398C54.7169 139.354 55.5635 139.278 56.4597 139.197C58.3471 139.026 60.6968 138.811 62.0185 138.79H62.0474C62.9866 138.785 63.7973 139.353 64.0255 140.179C64.4048 141.552 64.3855 144.155 64.3289 146.929C64.3077 147.826 63.4932 148.556 62.5058 148.564ZM54.1525 139.945C54.0174 139.953 53.8852 139.988 53.7638 140.048C53.6424 140.108 53.5341 140.191 53.4453 140.293C53.3785 140.371 53.3282 140.462 53.2975 140.56C53.2667 140.658 53.2563 140.761 53.2666 140.864L53.9256 146.851C53.9963 147.494 54.6089 147.982 55.3501 147.984L62.4903 148.016H62.5045C63.1962 148.012 63.7664 147.522 63.7793 146.917C63.8346 144.186 63.8545 141.626 63.4951 140.324C63.3338 139.74 62.7147 139.321 62.0268 139.338C60.7244 139.361 58.3863 139.573 56.5073 139.742C55.6073 139.824 54.7593 139.901 54.1538 139.945H54.1525Z" fill="white"/>
<path opacity="0.6" d="M54.9236 140.556C56.4228 140.446 59.6808 140.098 61.2275 140.071C61.8826 140.059 62.4592 140.452 62.6154 141.019C62.9195 142.121 62.8919 144.32 62.8501 146.35C62.8379 146.959 62.2824 147.447 61.6003 147.443L55.8943 147.418C55.193 147.418 54.6086 146.939 54.5392 146.317L54.0127 141.532C53.9581 141.038 54.3676 140.598 54.9236 140.556Z" fill="white"/>
<g opacity="0.6">
<path opacity="0.6" d="M68.7555 144.551C68.8581 144.931 69.0844 145.267 69.3987 145.504C69.713 145.742 70.0973 145.868 70.4912 145.862L136.548 144.955C136.904 144.953 137.243 144.809 137.493 144.556C137.743 144.303 137.881 143.961 137.879 143.605C137.876 143.25 137.733 142.91 137.479 142.66C137.226 142.411 136.884 142.272 136.529 142.275L70.4655 142.317C70.1935 142.317 69.9252 142.38 69.6813 142.501C69.4375 142.621 69.2247 142.796 69.0593 143.012C68.894 143.228 68.7806 143.479 68.7279 143.746C68.6752 144.013 68.6847 144.288 68.7555 144.551Z" fill="white"/>
</g>
<path d="M63.0831 167.095H63.0631L55.9229 167.064C54.9034 167.06 54.0586 166.362 53.9558 165.442L53.2969 159.455C53.2782 159.279 53.2954 159.102 53.3475 158.933C53.3995 158.765 53.4853 158.608 53.5996 158.474C53.736 158.315 53.9031 158.184 54.0908 158.091C54.2785 157.997 54.4831 157.942 54.6925 157.929C55.2936 157.885 56.1402 157.809 57.037 157.728C58.9244 157.557 61.2734 157.342 62.5958 157.321H62.6247C63.5633 157.316 64.3739 157.884 64.6021 158.71C64.9814 160.083 64.9621 162.687 64.9056 165.46C64.8844 166.36 64.0699 167.09 63.0831 167.095ZM54.7298 158.477C54.5946 158.484 54.4624 158.519 54.341 158.579C54.2195 158.639 54.1113 158.723 54.0226 158.825C53.9557 158.903 53.9052 158.993 53.8744 159.091C53.8436 159.189 53.833 159.292 53.8433 159.395L54.5022 165.382C54.5729 166.025 55.1856 166.513 55.9268 166.516L63.067 166.547H63.0811C63.7735 166.544 64.3437 166.053 64.3559 165.448C64.4112 162.717 64.4311 160.157 64.0718 158.855C63.9104 158.271 63.292 157.851 62.6035 157.869C61.3011 157.892 58.963 158.104 57.0846 158.273C56.1846 158.355 55.3366 158.432 54.7311 158.477H54.7298Z" fill="white"/>
<path opacity="0.6" d="M55.5006 159.091C57.0004 158.981 60.2578 158.632 61.8045 158.605C62.4596 158.594 63.0362 158.986 63.1924 159.553C63.4971 160.655 63.4688 162.855 63.4277 164.885C63.4155 165.493 62.8594 165.981 62.1774 165.978L56.472 165.952C55.77 165.952 55.1863 165.474 55.1168 164.851L54.5903 160.066C54.5357 159.572 54.9452 159.132 55.5006 159.091Z" fill="white"/>
<g opacity="0.6">
<path opacity="0.6" d="M69.3341 163.085C69.4367 163.466 69.663 163.801 69.9773 164.038C70.2916 164.276 70.676 164.402 71.0698 164.397L137.127 163.49C137.482 163.487 137.822 163.344 138.072 163.09C138.321 162.837 138.46 162.495 138.458 162.14C138.455 161.784 138.312 161.444 138.059 161.195C137.805 160.945 137.464 160.806 137.108 160.809L71.0441 160.851C70.7721 160.851 70.5038 160.914 70.2599 161.035C70.0161 161.155 69.8033 161.33 69.6379 161.546C69.4726 161.762 69.3592 162.013 69.3065 162.28C69.2538 162.547 69.2633 162.823 69.3341 163.085Z" fill="white"/>
</g>
<path d="M55.8099 160.029C55.9353 159.954 56.0743 159.905 56.2189 159.884C56.3634 159.864 56.5106 159.873 56.6516 159.911C56.7927 159.948 56.9248 160.014 57.0401 160.103C57.1555 160.193 57.2517 160.304 57.3232 160.432L58.7452 162.949C58.7772 163.006 58.8244 163.053 58.8815 163.084C58.9386 163.116 59.0034 163.131 59.0686 163.128C59.1338 163.125 59.1968 163.104 59.2506 163.067C59.3044 163.03 59.3469 162.979 59.3733 162.919L62.8254 155.124C62.9977 154.735 63.5763 154.863 63.5718 155.289C63.5487 157.667 62.9412 162.192 59.1599 165.996C59.1599 165.996 57.0616 165.193 55.3554 161.496C55.2368 161.239 55.2175 160.946 55.3014 160.675C55.3853 160.404 55.5664 160.174 55.8099 160.029Z" fill="url(#paint13_linear_20_1977)"/>
<path d="M54.9341 140.885C55.0595 140.81 55.1986 140.761 55.3433 140.741C55.488 140.72 55.6352 140.729 55.7763 140.767C55.9175 140.805 56.0496 140.87 56.165 140.96C56.2804 141.049 56.3766 141.161 56.4481 141.288L57.8694 143.805C57.9014 143.862 57.9486 143.909 58.0057 143.941C58.0628 143.972 58.1276 143.987 58.1928 143.984C58.258 143.981 58.321 143.96 58.3748 143.923C58.4286 143.886 58.4711 143.835 58.4975 143.775L61.9503 135.98C62.1226 135.591 62.7005 135.719 62.6966 136.145C62.6735 138.524 62.0653 143.048 58.2847 146.852C58.2847 146.852 56.1864 146.049 54.4803 142.352C54.3614 142.095 54.342 141.803 54.4258 141.532C54.5096 141.261 54.6906 141.03 54.9341 140.885Z" fill="url(#paint14_linear_20_1977)"/>
<path d="M54.9341 122.383C55.0595 122.308 55.1986 122.259 55.3433 122.239C55.488 122.218 55.6352 122.227 55.7763 122.265C55.9175 122.303 56.0496 122.368 56.165 122.458C56.2804 122.547 56.3766 122.659 56.4481 122.787L57.8694 125.303C57.9014 125.36 57.9486 125.407 58.0057 125.439C58.0628 125.47 58.1276 125.485 58.1928 125.482C58.258 125.479 58.321 125.458 58.3748 125.421C58.4286 125.384 58.4711 125.333 58.4975 125.273L61.9503 117.478C62.1226 117.09 62.7005 117.217 62.6966 117.643C62.6735 120.022 62.0653 124.547 58.2847 128.35C58.2847 128.35 56.1864 127.548 54.4803 123.85C54.3614 123.593 54.342 123.301 54.4258 123.03C54.5096 122.759 54.6906 122.528 54.9341 122.383Z" fill="url(#paint15_linear_20_1977)"/>
<path d="M62.3269 99.8506C62.4986 99.4649 63.0772 99.5896 63.0733 100.015C63.0495 102.394 62.442 106.918 58.6614 110.723C58.6614 110.723 56.5624 109.92 54.8569 106.223C54.7375 105.965 54.7178 105.672 54.8016 105.401C54.8855 105.129 55.0668 104.899 55.3108 104.753C55.4363 104.679 55.5753 104.63 55.7199 104.61C55.8644 104.59 56.0115 104.599 56.1525 104.636C56.2935 104.674 56.4256 104.739 56.5411 104.828C56.6565 104.918 56.7529 105.029 56.8247 105.156L58.2461 107.674C58.2781 107.73 58.3253 107.777 58.3824 107.809C58.4395 107.84 58.5043 107.855 58.5695 107.852C58.6346 107.849 58.6977 107.828 58.7515 107.791C58.8053 107.754 58.8478 107.703 58.8742 107.643L62.3269 99.8506Z" fill="url(#paint16_linear_20_1977)"/>
<path d="M60.9223 57.2663H60.903L53.7628 57.2348C52.7426 57.2303 51.8985 56.5328 51.7956 55.6123L51.1367 49.6285C51.118 49.4531 51.1352 49.2758 51.1873 49.1072C51.2393 48.9387 51.3251 48.7825 51.4395 48.6482C51.5755 48.4892 51.742 48.359 51.9292 48.2654C52.1163 48.1718 52.3203 48.1166 52.5291 48.103C53.1302 48.0587 53.9769 47.9822 54.8736 47.9012C56.7611 47.7308 59.1101 47.5187 60.4324 47.4949H60.4607C61.3999 47.4904 62.2106 48.058 62.4388 48.8835C62.8181 50.2566 62.7988 52.8602 62.7422 55.6335C62.7242 56.5316 61.9097 57.2612 60.9223 57.2663ZM52.569 48.6475C52.4339 48.6556 52.3017 48.6906 52.1803 48.7504C52.0588 48.8102 51.9506 48.8937 51.8619 48.996C51.7951 49.0739 51.7448 49.1645 51.7141 49.2624C51.6834 49.3603 51.6729 49.4635 51.6831 49.5655L52.3421 55.5531C52.4128 56.196 53.0254 56.6839 53.7666 56.6871L60.9069 56.7186H60.921C61.6127 56.7148 62.1836 56.2243 62.1958 55.6193C62.2511 52.8878 62.271 50.3286 61.9117 49.0262C61.7503 48.4431 61.1312 48.0259 60.4434 48.0407C59.1409 48.0638 56.8029 48.2753 54.9238 48.445C54.0238 48.526 53.1765 48.6025 52.5703 48.6475H52.569Z" fill="white"/>
<path opacity="0.6" d="M53.3405 49.2617C54.8397 49.1518 58.0977 48.804 59.6444 48.7764C60.2995 48.7648 60.8761 49.1576 61.0323 49.7252C61.3364 50.8264 61.3087 53.0263 61.2676 55.0565C61.2547 55.664 60.6993 56.1493 60.0172 56.1493L54.3112 56.1242C53.6099 56.1242 53.0255 55.646 52.9561 55.023L52.4296 50.2382C52.3756 49.7439 52.7851 49.3029 53.3405 49.2617Z" fill="white"/>
<g opacity="0.6">
<path opacity="0.6" d="M67.1728 53.2561C67.2751 53.6366 67.5013 53.9721 67.8157 54.2096C68.13 54.4471 68.5145 54.573 68.9085 54.5675L134.965 53.6611C135.316 53.6513 135.649 53.5045 135.893 53.2521C136.136 52.9997 136.271 52.6618 136.269 52.311C136.266 51.9601 136.126 51.6242 135.879 51.3754C135.632 51.1265 135.297 50.9845 134.946 50.9797L68.8828 51.0222C68.6108 51.0225 68.3426 51.0854 68.0988 51.2059C67.855 51.3265 67.6422 51.5015 67.4769 51.7175C67.3116 51.9334 67.1982 52.1845 67.1455 52.4513C67.0927 52.7181 67.1021 52.9935 67.1728 53.2561Z" fill="white"/>
</g>
<g opacity="0.6">
<path opacity="0.6" d="M57.5224 37.3097C57.7152 38.5054 58.4159 39.3418 59.2266 39.3411L125.293 39.2936C126.041 39.2936 126.65 38.3627 126.648 37.2249C126.648 36.1191 126.065 35.2269 125.338 35.2127L59.2857 33.9431C58.1196 33.9219 57.2485 35.5894 57.5224 37.3097Z" fill="white"/>
</g>
<path d="M61.0018 75.8013H60.9825L53.8423 75.7698C52.8221 75.7653 51.978 75.0684 51.8752 74.1479L51.2163 68.1603C51.1976 67.9849 51.2149 67.8075 51.2669 67.639C51.319 67.4705 51.4048 67.3143 51.519 67.1799C51.6551 67.0209 51.8216 66.8908 52.0087 66.7971C52.1959 66.7035 52.3999 66.6483 52.6087 66.6348C53.2097 66.5911 54.0564 66.5139 54.9525 66.4329C56.84 66.2626 59.1896 66.0472 60.512 66.0266H60.5403C61.4795 66.0215 62.2901 66.5892 62.5183 67.4146C62.8976 68.7884 62.8783 71.3913 62.8218 74.1646C62.8038 75.0659 61.9893 75.7962 61.0018 75.8013ZM52.6485 67.1819C52.5134 67.1899 52.3812 67.2248 52.2598 67.2846C52.1383 67.3445 52.0301 67.428 51.9414 67.5303C51.8744 67.6082 51.8241 67.699 51.7934 67.797C51.7626 67.895 51.7522 67.9983 51.7627 68.1005L52.4216 74.0874C52.4923 74.7303 53.105 75.2182 53.8462 75.2214L60.9864 75.2529H61.0005C61.6923 75.2491 62.2625 74.7586 62.2753 74.1537C62.3306 71.4222 62.3505 68.8629 61.9912 67.5605C61.8298 66.9774 61.2108 66.5583 60.5229 66.575C59.2205 66.5981 56.8824 66.8097 55.0033 66.9794C54.1033 67.0604 53.2554 67.1375 52.6498 67.1819H52.6485Z" fill="white"/>
<path opacity="0.6" d="M53.4202 67.7965C54.9194 67.686 58.1774 67.3382 59.7241 67.3106C60.3792 67.299 60.9558 67.6918 61.112 68.2594C61.4161 69.3613 61.3884 71.5605 61.3467 73.5906C61.3344 74.1988 60.779 74.6835 60.0969 74.6835L54.3909 74.6584C53.6896 74.6584 53.1052 74.1801 53.0358 73.5572L52.5093 68.7731C52.4546 68.2781 52.8641 67.837 53.4202 67.7965Z" fill="white"/>
<g opacity="0.6">
<path opacity="0.6" d="M67.2526 71.7906C67.355 72.1711 67.5812 72.5066 67.8955 72.7442C68.2098 72.9818 68.5943 73.108 68.9883 73.1027L135.046 72.1931C135.397 72.1833 135.729 72.0365 135.973 71.7841C136.217 71.5317 136.352 71.1938 136.349 70.8429C136.347 70.4921 136.207 70.1562 135.96 69.9074C135.712 69.6585 135.377 69.5165 135.027 69.5117L68.9632 69.5541C68.6909 69.5542 68.4223 69.6171 68.1782 69.7378C67.9341 69.8584 67.7211 70.0337 67.5556 70.25C67.3902 70.4663 67.2768 70.7178 67.2243 70.9849C67.1717 71.2521 67.1814 71.5278 67.2526 71.7906Z" fill="white"/>
</g>
<path d="M61.5795 94.3354H61.5596L54.42 94.3072C53.4005 94.3027 52.5558 93.6058 52.4529 92.6852L51.7946 86.6983C51.7757 86.5228 51.7927 86.3453 51.8446 86.1767C51.8966 86.008 51.9824 85.8517 52.0968 85.7173C52.2332 85.558 52.4002 85.4276 52.588 85.334C52.7757 85.2404 52.9803 85.1853 53.1896 85.1721C53.7907 85.1284 54.6373 85.0513 55.5341 84.9709C57.4215 84.7999 59.7706 84.5852 61.0929 84.564H61.1218C62.0604 84.5589 62.8711 85.1265 63.0993 85.9526C63.4786 87.3257 63.4593 89.9287 63.4033 92.7026C63.3808 93.6 62.5663 94.3303 61.5795 94.3354ZM53.2263 85.716C53.0911 85.7239 52.9589 85.7588 52.8374 85.8187C52.716 85.8785 52.6077 85.9621 52.5191 86.0644C52.4521 86.1423 52.4016 86.2331 52.3708 86.3311C52.34 86.4291 52.3294 86.5324 52.3398 86.6346L52.9987 92.6216C53.0694 93.2644 53.682 93.7524 54.4233 93.7556L61.5635 93.7871H61.5776C62.27 93.7832 62.8402 93.2927 62.8524 92.6878C62.9077 89.9563 62.9276 87.3971 62.5683 86.0946C62.4069 85.5116 61.7885 85.0905 61.1 85.1091C59.7976 85.1323 57.4595 85.3438 55.581 85.5135C54.681 85.5945 53.8331 85.6716 53.2275 85.716H53.2263Z" fill="white"/>
<path opacity="0.6" d="M53.9967 86.3307C55.4965 86.2202 58.7539 85.8724 60.3006 85.8447C60.9557 85.8332 61.5323 86.2259 61.6885 86.7936C61.9932 87.8954 61.9649 90.0947 61.9238 92.1248C61.9116 92.733 61.3555 93.2177 60.6734 93.2177L54.9681 93.1926C54.2661 93.1926 53.6824 92.7143 53.6129 92.0914L53.0864 87.3072C53.0318 86.8122 53.4413 86.3712 53.9967 86.3307Z" fill="white"/>
<g opacity="0.6">
<path opacity="0.6" d="M67.829 90.3255C67.9316 90.7058 68.1579 91.0411 68.4722 91.2785C68.7865 91.516 69.1709 91.6421 69.5647 91.6369L135.622 90.7298C135.977 90.7273 136.317 90.5838 136.567 90.3306C136.816 90.0775 136.955 89.7356 136.953 89.3801C136.95 89.0247 136.807 88.6847 136.553 88.4351C136.3 88.1855 135.958 88.0466 135.603 88.0491L69.539 88.0915C69.2671 88.0918 68.9988 88.1547 68.755 88.2753C68.5113 88.3959 68.2985 88.5709 68.1332 88.7868C67.9679 89.0028 67.8545 89.2539 67.8017 89.5207C67.749 89.7875 67.7583 90.0629 67.829 90.3255Z" fill="white"/>
</g>
<path d="M162.845 116.614C162.948 116.896 167.056 108.766 167.056 108.766L157.856 102.911L162.272 92.1615L151.407 85.9097L165.17 91.975L161.134 101.554C161.134 101.554 172.915 108.662 172.759 108.768C172.603 108.874 162.845 116.614 162.845 116.614Z" fill="url(#paint17_linear_20_1977)"/>
<path d="M177.917 0C177.539 0.257143 169.938 13.5958 169.938 13.5958L162.174 6.51858C162.174 6.51858 149.465 20.9829 149.653 20.2295C149.842 19.476 160.804 1.62643 160.804 1.62643L169.826 11.2963L177.917 0Z" fill="url(#paint18_linear_20_1977)"/>
<path d="M72.6293 0.128662C72.8338 0.544591 85.2216 10.0544 85.2216 10.0544L77.0143 16.8938C77.0143 16.8938 89.8245 31.7058 89.0923 31.4108C88.3601 31.1157 71.8945 17.5958 71.8945 17.5958L82.8874 9.8461L72.6293 0.128662Z" fill="url(#paint19_linear_20_1977)"/>
<path d="M48.9937 73.878C49.8294 74.3486 64.1876 72.996 64.1876 72.996L62.4969 62.9675C62.4969 62.9675 79.6811 60.7252 79.5603 60.9656C79.4394 61.206 58.6031 59.7725 58.6031 59.7725L61.314 70.53L48.9937 73.878Z" fill="url(#paint20_linear_20_1977)"/>
<path d="M140.156 179.146C141.669 179.274 144.295 179.489 146.366 179.58C147.61 179.635 148.327 179.516 148.74 179.348C148.74 179.394 148.738 179.437 148.736 179.476C148.73 179.582 148.685 179.682 148.61 179.757C148.535 179.831 148.435 179.876 148.329 179.881C145.621 180.035 142.906 180.038 140.197 179.889C140.145 179.886 140.094 179.87 140.05 179.843C140.006 179.815 139.969 179.776 139.944 179.73C139.919 179.684 139.906 179.632 139.907 179.58C139.908 179.528 139.922 179.476 139.949 179.431C140.011 179.331 140.08 179.236 140.156 179.146Z" fill="url(#paint21_linear_20_1977)"/>
<path d="M146.366 179.58C144.295 179.489 141.669 179.276 140.156 179.146C141.643 177.32 146.366 176.09 146.366 176.09H147.698C148.616 177.412 148.748 178.671 148.739 179.348C148.327 179.513 147.61 179.635 146.366 179.58Z" fill="url(#paint22_linear_20_1977)"/>
<path d="M147.924 173.912L147.799 176.382C147.793 176.513 147.741 176.637 147.654 176.734C147.566 176.831 147.447 176.894 147.318 176.913C146.982 176.963 146.639 176.935 146.316 176.83C146.201 176.793 146.099 176.726 146.02 176.635C145.941 176.545 145.888 176.434 145.866 176.316L145.435 173.911L147.924 173.912Z" fill="url(#paint23_linear_20_1977)"/>
<path d="M165.249 179.562C165.904 179.47 166.201 179.129 166.326 178.765C166.326 178.765 166.326 178.771 166.326 178.774C166.423 179.16 166.198 179.557 165.751 179.747C165.21 179.976 164.619 180.015 164.16 179.996C163.667 179.976 163.215 179.772 162.967 179.445L162.963 179.441C163.46 179.685 164.156 179.714 165.249 179.562Z" fill="url(#paint24_linear_20_1977)"/>
<path d="M162.154 173.897H163.256C164.931 173.863 165.983 177.396 166.327 178.765C166.203 179.129 165.906 179.472 165.25 179.562C164.157 179.714 163.461 179.685 162.967 179.441C162.062 178.25 161.613 176.505 161.397 175.487C161.15 174.33 162.154 173.897 162.154 173.897Z" fill="url(#paint25_linear_20_1977)"/>
<path d="M163.112 171.604L163.723 174.034C163.759 174.179 163.744 174.332 163.682 174.467C163.62 174.603 163.513 174.714 163.38 174.781C163.038 174.956 162.557 175.14 162.115 175.087C162.014 175.074 161.917 175.032 161.838 174.968C161.758 174.903 161.699 174.817 161.665 174.72L160.769 172.164L163.112 171.604Z" fill="url(#paint26_linear_20_1977)"/>
<path d="M163.841 172.306C163.081 172.981 160.609 173.07 160.609 173.07C151.706 151.701 148.064 148.665 148.064 148.665C149.35 156.731 148.272 174.587 148.272 174.587C146.802 175.235 144.908 174.587 144.908 174.587C144.8 163.175 143.272 151.821 140.362 140.786C146.379 140.651 149.579 138.592 150.624 137.764C155.64 145.854 163.841 172.306 163.841 172.306Z" fill="url(#paint27_linear_20_1977)"/>
<path d="M149.095 113.194C150.234 118.875 149.826 129.043 149.558 133.682C149.483 134.985 150.394 136.793 151.128 138.026C151.155 138.071 151.173 138.122 151.18 138.174C151.187 138.227 151.183 138.28 151.169 138.332C151.154 138.383 151.129 138.43 151.095 138.471C151.061 138.512 151.019 138.545 150.972 138.569C149.741 139.202 145.569 141.164 140.734 141.408C140.577 141.414 140.422 141.366 140.296 141.273C140.17 141.179 140.079 141.045 140.039 140.893C136.453 127.501 132.287 118.944 132.287 118.944C136.886 111.6 149.095 113.194 149.095 113.194Z" fill="url(#paint28_linear_20_1977)"/>
<path d="M147.456 148.16C147.506 148.159 147.555 148.145 147.598 148.12C147.641 148.094 147.677 148.058 147.701 148.014C147.726 147.97 147.739 147.921 147.738 147.871C147.738 147.821 147.724 147.772 147.698 147.729C147.65 147.65 146.499 145.789 144.168 144.664C144.135 144.648 144.098 144.639 144.061 144.636C144.023 144.634 143.986 144.64 143.95 144.652C143.915 144.664 143.882 144.683 143.854 144.708C143.826 144.733 143.803 144.764 143.787 144.797C143.771 144.831 143.761 144.868 143.759 144.905C143.757 144.943 143.762 144.98 143.775 145.016C143.787 145.051 143.806 145.084 143.831 145.112C143.856 145.14 143.886 145.162 143.92 145.179C146.093 146.227 147.199 148.007 147.211 148.026C147.237 148.068 147.273 148.102 147.316 148.125C147.359 148.148 147.407 148.16 147.456 148.16Z" fill="url(#paint29_linear_20_1977)"/>
<path d="M156.24 129.499C155.874 132.145 154.793 135.032 152.631 138.099L151.809 137.429C151.809 137.429 152.758 133.579 152.218 129.209C153.552 128.95 155.128 129.218 156.24 129.499Z" fill="url(#paint30_linear_20_1977)"/>
<path d="M147.823 120.203L149.095 113.196C149.095 113.196 157.595 119.694 156.24 129.501C155.127 129.22 153.552 128.952 152.218 129.212C151.83 126.064 150.669 122.645 147.823 120.203Z" fill="url(#paint31_linear_20_1977)"/>
<path d="M132.287 118.943L135.566 126.009C135.036 130.275 132.744 132.116 130.273 132.827C130.151 131.244 129.78 129.691 129.171 128.225C132.33 124.965 132.287 118.943 132.287 118.943Z" fill="url(#paint32_linear_20_1977)"/>
<path d="M129.173 128.225C129.782 129.691 130.153 131.244 130.275 132.827C123.683 135.385 121.938 130.424 121.938 130.424L123.159 130.209C125.906 130.5 127.83 129.612 129.173 128.225Z" fill="url(#paint33_linear_20_1977)"/>
<path d="M135.31 110.219L136.894 116.042C136.936 116.196 137.01 116.339 137.111 116.463C137.213 116.586 137.339 116.687 137.482 116.758C137.625 116.829 137.782 116.87 137.941 116.876C138.101 116.883 138.26 116.855 138.409 116.796C139.188 116.49 139.95 116.142 140.691 115.753C140.878 115.651 141.042 115.512 141.172 115.344C141.302 115.175 141.395 114.981 141.446 114.775C141.496 114.568 141.503 114.353 141.466 114.144C141.429 113.935 141.348 113.735 141.229 113.559L137.936 108.649L135.31 110.219Z" fill="url(#paint34_linear_20_1977)"/>
<path d="M131.844 105.795C131.83 105.895 133.165 112.44 133.165 112.44L136.886 111.597L136.542 105.207C136.542 105.207 132.086 104.121 131.844 105.795Z" fill="url(#paint35_linear_20_1977)"/>
<path d="M135.706 106.631L136.15 109.981C136.157 110.024 136.157 110.067 136.15 110.11C136.113 110.373 135.918 111.267 135.015 111.01C134.196 110.778 133.445 110.578 132.927 110.737C132.815 110.772 132.72 110.847 132.661 110.948C132.601 111.049 132.581 111.168 132.605 111.283C132.727 111.877 133.026 113.211 133.461 114.332C133.505 114.442 133.588 114.531 133.693 114.582C133.799 114.634 133.921 114.644 134.034 114.611C134.741 114.405 136.215 113.929 137.312 113.268C137.385 113.225 137.445 113.162 137.485 113.088C137.526 113.013 137.545 112.928 137.542 112.843C137.506 111.998 137.407 109.427 137.491 108.707C137.569 108.03 138.399 107.625 138.76 107.479C138.818 107.456 138.871 107.421 138.915 107.377C138.959 107.333 138.994 107.28 139.017 107.222C139.184 106.804 139.414 105.835 138.194 105.438C138.134 105.419 138.078 105.387 138.03 105.346C137.982 105.304 137.943 105.253 137.915 105.196C137.887 105.139 137.87 105.077 137.867 105.014C137.864 104.95 137.873 104.887 137.895 104.827C138.075 104.324 138.152 103.555 137.207 103.132C136.248 102.702 135.531 103.214 135.144 103.629C135.068 103.71 134.966 103.761 134.856 103.774C134.746 103.787 134.635 103.761 134.542 103.701C134.431 103.631 134.289 103.608 134.117 103.715C134.061 103.748 134 103.769 133.935 103.777C133.871 103.785 133.806 103.78 133.744 103.761C133.682 103.742 133.624 103.711 133.575 103.668C133.526 103.626 133.486 103.574 133.458 103.516C133.229 103.044 132.76 102.538 131.821 102.699C130.153 102.985 129.964 104.832 130.407 105.913C130.849 106.995 132.637 106.583 133.535 106.038C134.217 105.623 135.103 106.057 135.488 106.29C135.548 106.327 135.598 106.377 135.636 106.436C135.673 106.495 135.697 106.561 135.706 106.631Z" fill="url(#paint36_linear_20_1977)"/>
<path d="M137.637 109.929C137.637 109.929 136.952 108.009 137.657 107.539C138.361 107.069 139.404 107.313 139.174 108.703C138.892 110.433 137.637 109.929 137.637 109.929Z" fill="url(#paint37_linear_20_1977)"/>
<path d="M122.427 131.331C122.095 131.589 120.958 131.05 120.262 130.676C120.098 130.588 119.97 130.445 119.899 130.272C119.829 130.099 119.821 129.907 119.877 129.729C120.045 129.202 120.323 128.52 120.667 128.434C121.236 128.292 123.794 130.264 122.427 131.331Z" fill="url(#paint38_linear_20_1977)"/>
<path d="M178.403 147.365L91.5906 116.49L86.998 129.248L173.781 160.986C174.673 161.311 175.652 161.311 176.545 160.988C177.438 160.665 178.189 160.038 178.666 159.217C179.681 157.475 180.65 154.753 180.709 150.676C180.718 149.952 180.5 149.244 180.087 148.651C179.674 148.057 179.085 147.607 178.403 147.365Z" fill="url(#paint39_linear_20_1977)"/>
<path d="M64.7334 113.193L76.7253 114.665C76.7125 116.315 76.1725 118.451 74.3429 120.9L64.3284 114.294C63.7968 113.943 64.1015 113.115 64.7334 113.193Z" fill="url(#paint40_linear_20_1977)"/>
<path d="M91.5906 116.49C92.1403 124.486 86.9981 129.248 86.9981 129.248L74.3428 120.9C76.1723 118.45 76.7123 116.315 76.7252 114.665L91.5906 116.49Z" fill="url(#paint41_linear_20_1977)"/>
<path d="M177.326 151.277C177.385 151.275 177.441 151.252 177.485 151.213C177.53 151.175 177.559 151.122 177.569 151.064C177.579 151.006 177.569 150.946 177.54 150.895C177.511 150.843 177.466 150.803 177.411 150.782L94.354 121.429C94.2929 121.416 94.2292 121.425 94.1748 121.456C94.1204 121.487 94.0789 121.536 94.0581 121.595C94.0373 121.654 94.0387 121.718 94.0619 121.776C94.0851 121.834 94.1286 121.881 94.1842 121.91L177.241 151.262C177.269 151.272 177.297 151.277 177.326 151.277Z" fill="url(#paint42_linear_20_1977)"/>
<path d="M175.894 156.283C175.952 156.28 176.009 156.258 176.053 156.219C176.097 156.18 176.127 156.127 176.137 156.069C176.147 156.011 176.137 155.952 176.108 155.9C176.079 155.849 176.034 155.809 175.979 155.787L92.9218 126.434C92.8608 126.421 92.7971 126.431 92.7427 126.461C92.6882 126.492 92.6468 126.541 92.626 126.6C92.6052 126.659 92.6066 126.723 92.6298 126.781C92.653 126.839 92.6965 126.887 92.7521 126.915L175.809 156.268C175.836 156.278 175.865 156.282 175.894 156.283Z" fill="url(#paint43_linear_20_1977)"/>
<path d="M152.148 137.314L148.311 137.002L146.649 138.533C146.649 138.533 147.042 139.077 148.271 138.765C149.501 138.452 151.184 138.376 151.184 138.376C151.184 138.376 152.881 139.141 152.901 137.709L152.148 137.314Z" fill="url(#paint44_linear_20_1977)"/>
<path d="M83.4937 52.612C83.4937 74.3592 101.79 91.989 124.36 91.989C146.93 91.989 166.237 73.5891 166.237 51.8412C166.237 30.0933 146.93 13.2344 124.363 13.2344C101.795 13.2344 83.4937 30.8641 83.4937 52.612Z" fill="url(#paint45_linear_20_1977)"/>
<path d="M163.029 43.0374C163.053 43.0376 163.078 43.0345 163.101 43.0284C163.137 43.02 163.17 43.0047 163.199 42.9834C163.228 42.962 163.253 42.9351 163.272 42.904C163.29 42.873 163.303 42.8386 163.308 42.8028C163.313 42.7669 163.311 42.7304 163.302 42.6954C162.858 41.093 162.299 39.5247 161.631 38.0025C161.599 37.9356 161.543 37.8834 161.474 37.8565C161.405 37.8296 161.329 37.8301 161.26 37.8579C161.227 37.871 161.196 37.8907 161.17 37.9159C161.144 37.9411 161.124 37.9712 161.11 38.0045C161.096 38.0378 161.089 38.0736 161.089 38.1096C161.089 38.1457 161.096 38.1814 161.111 38.2146C161.769 39.7127 162.318 41.2564 162.754 42.8336C162.771 42.893 162.807 42.9452 162.857 42.982C162.907 43.0189 162.967 43.0383 163.029 43.0374Z" fill="#BDD0FB"/>
<path d="M156.784 30.7319C156.845 30.7318 156.904 30.7127 156.954 30.6772C156.983 30.6564 157.008 30.6298 157.027 30.599C157.045 30.5683 157.058 30.5341 157.063 30.4984C157.068 30.4628 157.066 30.4265 157.057 30.3917C157.047 30.3569 157.031 30.3243 157.009 30.296C149.437 20.6216 137.241 14.8462 124.384 14.8462C118.893 14.8462 113.584 15.9191 108.599 18.0335C108.566 18.0471 108.535 18.0673 108.51 18.0928C108.484 18.1184 108.464 18.1488 108.451 18.1823C108.438 18.2158 108.431 18.2516 108.432 18.2877C108.432 18.3237 108.44 18.3593 108.455 18.3922C108.487 18.4589 108.544 18.5106 108.613 18.5366C108.682 18.5626 108.759 18.5609 108.827 18.5317C113.737 16.4469 118.972 15.3901 124.384 15.3901C137.064 15.3901 149.092 21.0845 156.558 30.6258C156.585 30.6596 156.619 30.6867 156.658 30.7051C156.698 30.7235 156.741 30.7326 156.784 30.7319Z" fill="#BDD0FB"/>
<path d="M89.0537 52.6122C89.0537 71.437 104.891 86.6972 124.428 86.6972C143.965 86.6972 160.677 70.7697 160.677 51.9449C160.677 33.1201 143.963 18.5266 124.428 18.5266C104.894 18.5266 89.0537 33.7868 89.0537 52.6122Z" fill="#91B3FA"/>
<path opacity="0.78" d="M151.637 50.8443C151.725 52.2907 153.013 53.3958 154.515 53.3116C156.017 53.2274 157.163 51.986 157.075 50.5389C156.988 49.0919 155.7 47.9874 154.198 48.0717C152.696 48.1559 151.55 49.3972 151.637 50.8443Z" fill="white"/>
<path opacity="0.78" d="M92.7986 54.1439C92.8854 55.5903 94.1736 56.6954 95.6754 56.6111C97.1771 56.5269 98.3233 55.2856 98.2359 53.8385C98.1484 52.3914 96.8608 51.287 95.3591 51.3712C93.8574 51.4554 92.7118 52.6968 92.7986 54.1439Z" fill="white"/>
<path opacity="0.78" d="M129.742 77.6933C128.264 77.9505 127.283 79.3204 127.553 80.7462C127.823 82.1721 129.241 83.1165 130.721 82.8561C132.201 82.5957 133.181 81.229 132.911 79.8032C132.64 78.3773 131.222 77.4329 129.742 77.6933Z" fill="white"/>
<path opacity="0.78" d="M119.156 21.8269C117.677 22.0872 116.696 23.4539 116.966 24.8798C117.236 26.3056 118.655 27.25 120.135 26.9896C121.615 26.7293 122.594 25.3626 122.324 23.9367C122.054 22.5108 120.634 21.5665 119.156 21.8269Z" fill="white"/>
<path opacity="0.78" d="M110.381 79.1929C110.104 79.866 110.173 80.496 110.535 80.6002C110.897 80.7043 111.415 80.2434 111.692 79.5716C111.969 78.8998 111.9 78.2685 111.538 78.1644C111.176 78.0602 110.657 78.5199 110.381 79.1929Z" fill="white"/>
<path opacity="0.78" d="M134.051 26.2034C133.774 26.8765 133.843 27.5065 134.205 27.6106C134.567 27.7148 135.086 27.2545 135.363 26.5821C135.64 25.9096 135.57 25.279 135.208 25.1749C134.846 25.0707 134.327 25.531 134.051 26.2034Z" fill="white"/>
<path opacity="0.78" d="M98.0212 69.1201C97.422 69.5566 97.1417 70.1294 97.395 70.4C97.6483 70.6706 98.3394 70.535 98.9379 70.0991C99.5364 69.6633 99.8173 69.0892 99.564 68.8192C99.3107 68.5492 98.6203 68.6836 98.0212 69.1201Z" fill="white"/>
<path opacity="0.78" d="M146.805 35.6788C146.206 36.1153 145.925 36.6881 146.178 36.9581C146.431 37.2281 147.122 37.0937 147.721 36.6572C148.319 36.2207 148.6 35.6479 148.347 35.3773C148.094 35.1067 147.403 35.2397 146.805 35.6788Z" fill="white"/>
<path opacity="0.78" d="M96.4688 39.1167C95.7912 38.8056 95.1336 38.83 95.0018 39.1713C94.87 39.5127 95.3116 40.0411 95.9898 40.3523C96.6681 40.6634 97.3251 40.639 97.4575 40.2976C97.5899 39.9563 97.147 39.4278 96.4688 39.1167Z" fill="white"/>
<path opacity="0.78" d="M149.756 65.4224C149.077 65.1112 148.42 65.1357 148.288 65.477C148.156 65.8184 148.599 66.3468 149.277 66.6579C149.955 66.9691 150.612 66.9447 150.744 66.6039C150.876 66.2632 150.431 65.7335 149.756 65.4224Z" fill="white"/>
<path opacity="0.78" d="M107.727 27.909C107.316 27.304 106.741 26.9961 106.441 27.2211C106.142 27.4461 106.238 28.1211 106.65 28.7254C107.062 29.3297 107.636 29.6382 107.935 29.4126C108.234 29.187 108.139 28.5139 107.727 27.909Z" fill="white"/>
<path opacity="0.78" d="M139.091 77.049C138.679 76.4441 138.104 76.1362 137.805 76.3618C137.506 76.5875 137.601 77.2618 138.013 77.8655C138.425 78.4691 138.999 78.7783 139.299 78.5533C139.598 78.3283 139.503 77.6572 139.091 77.049Z" fill="white"/>
<path d="M124.535 51.9745L148.423 56.2855C148.885 56.3691 149.282 55.9422 149.147 55.5064L148.342 52.9131C148.185 52.4091 148.727 51.9552 149.219 52.1821L168.039 60.9076C168.617 61.1744 168.434 62.0153 167.792 62.0577L147.037 63.4405C146.927 63.4512 146.817 63.4311 146.717 63.3826C146.618 63.3341 146.534 63.259 146.475 63.1657C146.416 63.0725 146.384 62.9646 146.383 62.8542C146.382 62.7439 146.411 62.6352 146.468 62.5405L148.164 59.7209C148.213 59.6406 148.242 59.5498 148.249 59.4561C148.255 59.3624 148.24 59.2684 148.203 59.1819C148.166 59.0954 148.109 59.019 148.037 58.9589C147.965 58.8988 147.879 58.8568 147.787 58.8364L124.248 53.1574C124.171 53.1401 124.098 53.1077 124.034 53.062C123.97 53.0164 123.915 52.9583 123.874 52.8913C123.832 52.8243 123.805 52.7497 123.792 52.6719C123.78 52.594 123.783 52.5145 123.802 52.438C123.844 52.2827 123.942 52.1486 124.078 52.0627C124.214 51.9768 124.377 51.9453 124.535 51.9745Z" fill="url(#paint46_linear_20_1977)"/>
<path d="M165.651 61.5017C165.747 61.4762 165.834 61.4242 165.903 61.3516C165.971 61.2789 166.017 61.1886 166.037 61.0909C166.061 60.9754 166.044 60.8551 165.988 60.7512C165.932 60.6472 165.841 60.5662 165.732 60.5226L161.661 58.7869C161.593 58.7581 161.516 58.7566 161.447 58.7828C161.377 58.809 161.321 58.8609 161.288 58.9277C161.273 58.9602 161.264 58.9955 161.263 59.0315C161.262 59.0675 161.267 59.1034 161.28 59.137C161.293 59.1706 161.313 59.2013 161.338 59.2271C161.363 59.2528 161.393 59.2732 161.427 59.287L165.497 61.0227C160.781 61.2722 149.765 61.9613 149.543 61.9999C149.47 62.0114 149.405 62.0511 149.361 62.1103C149.318 62.1694 149.299 62.2434 149.309 62.3162C149.322 62.3872 149.363 62.4503 149.422 62.4917C149.481 62.5331 149.555 62.5495 149.626 62.5373C149.951 62.4994 158.392 61.9664 165.533 61.5216C165.573 61.5192 165.612 61.5126 165.651 61.5017Z" fill="white"/>
<path d="M123.247 50.5202L123.291 29.9083C123.284 29.4518 122.777 29.1683 122.36 29.3901L119.899 30.7118C119.42 30.969 118.853 30.5518 118.986 30.0388L124.076 10.3319C124.232 9.72894 125.117 9.71866 125.288 10.3178L130.797 29.6775C130.926 30.1403 130.476 30.5595 129.999 30.4103L126.814 29.4126C126.42 29.2892 126.013 29.5611 125.994 29.9597L124.5 50.5376C124.49 50.6983 124.417 50.8486 124.298 50.9567C124.178 51.0648 124.022 51.122 123.861 51.1161C123.701 51.1157 123.548 51.0533 123.434 50.9421C123.319 50.831 123.252 50.6797 123.247 50.5202Z" fill="url(#paint47_linear_20_1977)"/>
<path d="M129.107 27.7875C129.142 27.7876 129.177 27.7813 129.21 27.7688C129.244 27.7568 129.275 27.7382 129.301 27.7141C129.327 27.6901 129.348 27.661 129.363 27.6287C129.378 27.5963 129.387 27.5613 129.388 27.5257C129.39 27.49 129.384 27.4545 129.371 27.421C129.269 27.1228 127.057 19.242 125.193 12.5742C125.158 12.4607 125.087 12.3617 124.99 12.2923C124.894 12.2229 124.777 12.1869 124.659 12.1899C124.54 12.1928 124.425 12.2344 124.332 12.3084C124.239 12.3825 124.173 12.4848 124.144 12.6L123.195 16.83C123.188 16.8653 123.188 16.9017 123.195 16.9371C123.202 16.9725 123.216 17.0061 123.236 17.0361C123.256 17.066 123.282 17.0916 123.312 17.1114C123.342 17.1312 123.376 17.1448 123.412 17.1514C123.483 17.1673 123.559 17.1545 123.622 17.1158C123.684 17.077 123.729 17.0153 123.747 16.9437L124.695 12.7137C125.882 17.127 128.761 27.4108 128.844 27.6133C128.865 27.6652 128.902 27.7095 128.949 27.7405C128.995 27.7716 129.05 27.7879 129.107 27.7875Z" fill="white"/>
<path d="M124.611 54.4282C126.218 54.4282 127.52 53.1734 127.52 51.6254C127.52 50.0774 126.218 48.8225 124.611 48.8225C123.005 48.8225 121.702 50.0774 121.702 51.6254C121.702 53.1734 123.005 54.4282 124.611 54.4282Z" fill="url(#paint48_linear_20_1977)"/>
<defs>
<linearGradient id="paint0_linear_20_1977" x1="202.131" y1="230.416" x2="44.333" y2="34.4404" gradientUnits="userSpaceOnUse">
<stop stop-color="#DAE3FE"/>
<stop offset="1" stop-color="#E9EFFD"/>
</linearGradient>
<linearGradient id="paint1_linear_20_1977" x1="75.6329" y1="129.199" x2="13.2062" y2="197.008" gradientUnits="userSpaceOnUse">
<stop stop-color="#4F52FF"/>
<stop offset="1" stop-color="#4042E2"/>
</linearGradient>
<linearGradient id="paint2_linear_20_1977" x1="38094.4" y1="1458.64" x2="120265" y2="1458.64" gradientUnits="userSpaceOnUse">
<stop stop-color="#DAE3FE"/>
<stop offset="1" stop-color="#E9EFFD"/>
</linearGradient>
<linearGradient id="paint3_linear_20_1977" x1="38094.4" y1="1476.47" x2="120265" y2="1476.47" gradientUnits="userSpaceOnUse">
<stop stop-color="#DAE3FE"/>
<stop offset="1" stop-color="#E9EFFD"/>
</linearGradient>
<linearGradient id="paint4_linear_20_1977" x1="38094.4" y1="1494.26" x2="120265" y2="1494.26" gradientUnits="userSpaceOnUse">
<stop stop-color="#DAE3FE"/>
<stop offset="1" stop-color="#E9EFFD"/>
</linearGradient>
<linearGradient id="paint5_linear_20_1977" x1="38094.4" y1="1512.14" x2="120265" y2="1512.14" gradientUnits="userSpaceOnUse">
<stop stop-color="#DAE3FE"/>
<stop offset="1" stop-color="#E9EFFD"/>
</linearGradient>
<linearGradient id="paint6_linear_20_1977" x1="38106.2" y1="1527.97" x2="120302" y2="1527.97" gradientUnits="userSpaceOnUse">
<stop stop-color="#DAE3FE"/>
<stop offset="1" stop-color="#E9EFFD"/>
</linearGradient>
<linearGradient id="paint7_linear_20_1977" x1="101.107" y1="101.272" x2="37.5643" y2="186.658" gradientUnits="userSpaceOnUse">
<stop stop-color="#53D8FF"/>
<stop offset="1" stop-color="#3840F7"/>
</linearGradient>
<linearGradient id="paint8_linear_20_1977" x1="6149.63" y1="26300.9" x2="-1647.52" y2="28785.3" gradientUnits="userSpaceOnUse">
<stop stop-color="#53D8FF"/>
<stop offset="1" stop-color="#3840F7"/>
</linearGradient>
<linearGradient id="paint9_linear_20_1977" x1="35354.4" y1="94460.7" x2="63701.4" y2="94460.7" gradientUnits="userSpaceOnUse">
<stop stop-color="#DAE3FE"/>
<stop offset="1" stop-color="#E9EFFD"/>
</linearGradient>
<linearGradient id="paint10_linear_20_1977" x1="52.026" y1="22.205" x2="105.319" y2="114.248" gradientUnits="userSpaceOnUse">
<stop stop-color="#CE1567"/>
<stop offset="1" stop-color="#7A1DBC"/>
</linearGradient>
<linearGradient id="paint11_linear_20_1977" x1="27393.8" y1="13214" x2="29837.7" y2="32122.3" gradientUnits="userSpaceOnUse">
<stop stop-color="#CE1567"/>
<stop offset="1" stop-color="#7A1DBC"/>
</linearGradient>
<linearGradient id="paint12_linear_20_1977" x1="87.8433" y1="83.9668" x2="51.7118" y2="146.382" gradientUnits="userSpaceOnUse">
<stop stop-color="#A737D5"/>
<stop offset="1" stop-color="#EF497A"/>
</linearGradient>
<linearGradient id="paint13_linear_20_1977" x1="115.655" y1="-40.8362" x2="105.051" y2="-3.13832" gradientUnits="userSpaceOnUse">
<stop stop-color="#FF928E"/>
<stop offset="1" stop-color="#FE7062"/>
</linearGradient>
<linearGradient id="paint14_linear_20_1977" x1="14867.4" y1="447.905" x2="12517.1" y2="6585.73" gradientUnits="userSpaceOnUse">
<stop stop-color="#FF928E"/>
<stop offset="1" stop-color="#FE7062"/>
</linearGradient>
<linearGradient id="paint15_linear_20_1977" x1="14243.9" y1="190.538" x2="11893.6" y2="6328.37" gradientUnits="userSpaceOnUse">
<stop stop-color="#FF928E"/>
<stop offset="1" stop-color="#FE7062"/>
</linearGradient>
<linearGradient id="paint16_linear_20_1977" x1="13696.6" y1="-37.0647" x2="11347.1" y2="6100.37" gradientUnits="userSpaceOnUse">
<stop stop-color="#FF928E"/>
<stop offset="1" stop-color="#FE7062"/>
</linearGradient>
<linearGradient id="paint17_linear_20_1977" x1="92167.6" y1="-60339.6" x2="78396.2" y2="-32177.8" gradientUnits="userSpaceOnUse">
<stop stop-color="#4F52FF"/>
<stop offset="1" stop-color="#4042E2"/>
</linearGradient>
<linearGradient id="paint18_linear_20_1977" x1="85158.6" y1="54452.9" x2="66559.2" y2="42037" gradientUnits="userSpaceOnUse">
<stop stop-color="#4F52FF"/>
<stop offset="1" stop-color="#4042E2"/>
</linearGradient>
<linearGradient id="paint19_linear_20_1977" x1="54757.7" y1="-9070.86" x2="28679.1" y2="6252" gradientUnits="userSpaceOnUse">
<stop stop-color="#4F52FF"/>
<stop offset="1" stop-color="#4042E2"/>
</linearGradient>
<linearGradient id="paint20_linear_20_1977" x1="-552564" y1="319185" x2="-543258" y2="306240" gradientUnits="userSpaceOnUse">
<stop stop-color="#4F52FF"/>
<stop offset="1" stop-color="#4042E2"/>
</linearGradient>
<linearGradient id="paint21_linear_20_1977" x1="21305.7" y1="2949.85" x2="20092.2" y2="2949.85" gradientUnits="userSpaceOnUse">
<stop stop-color="#4F52FF"/>
<stop offset="1" stop-color="#4042E2"/>
</linearGradient>
<linearGradient id="paint22_linear_20_1977" x1="148.74" y1="177.841" x2="140.156" y2="177.841" gradientUnits="userSpaceOnUse">
<stop stop-color="#09005D"/>
<stop offset="1" stop-color="#1A0F91"/>
</linearGradient>
<linearGradient id="paint23_linear_20_1977" x1="147.924" y1="175.424" x2="145.436" y2="175.424" gradientUnits="userSpaceOnUse">
<stop stop-color="#FEBBBA"/>
<stop offset="1" stop-color="#FF928E"/>
</linearGradient>
<linearGradient id="paint24_linear_20_1977" x1="8960.31" y1="4188.02" x2="8782.07" y2="4188.02" gradientUnits="userSpaceOnUse">
<stop stop-color="#4F52FF"/>
<stop offset="1" stop-color="#4042E2"/>
</linearGradient>
<linearGradient id="paint25_linear_20_1977" x1="-13284.3" y1="18629.8" x2="-12900.2" y2="18629.8" gradientUnits="userSpaceOnUse">
<stop stop-color="#09005D"/>
<stop offset="1" stop-color="#1A0F91"/>
</linearGradient>
<linearGradient id="paint26_linear_20_1977" x1="-7765.81" y1="11176.1" x2="-7628.28" y2="11176.1" gradientUnits="userSpaceOnUse">
<stop stop-color="#FEBBBA"/>
<stop offset="1" stop-color="#FF928E"/>
</linearGradient>
<linearGradient id="paint27_linear_20_1977" x1="54010.5" y1="101277" x2="74309" y2="119993" gradientUnits="userSpaceOnUse">
<stop stop-color="#4F52FF"/>
<stop offset="1" stop-color="#4042E2"/>
</linearGradient>
<linearGradient id="paint28_linear_20_1977" x1="58598.6" y1="37092.6" x2="53364.1" y2="46226.9" gradientUnits="userSpaceOnUse">
<stop stop-color="#FF928E"/>
<stop offset="1" stop-color="#FE7062"/>
</linearGradient>
<linearGradient id="paint29_linear_20_1977" x1="9806.44" y1="10645.8" x2="9734.18" y2="10482.6" gradientUnits="userSpaceOnUse">
<stop stop-color="#53D8FF"/>
<stop offset="1" stop-color="#3840F7"/>
</linearGradient>
<linearGradient id="paint30_linear_20_1977" x1="-10719.3" y1="22412" x2="-11812.8" y2="22889" gradientUnits="userSpaceOnUse">
<stop stop-color="#FEBBBA"/>
<stop offset="1" stop-color="#FF928E"/>
</linearGradient>
<linearGradient id="paint31_linear_20_1977" x1="27589.5" y1="22062.7" x2="24271.5" y2="26626.3" gradientUnits="userSpaceOnUse">
<stop stop-color="#FF928E"/>
<stop offset="1" stop-color="#FE7062"/>
</linearGradient>
<linearGradient id="paint32_linear_20_1977" x1="19048" y1="17504.4" x2="16129.3" y2="21025.2" gradientUnits="userSpaceOnUse">
<stop stop-color="#FF928E"/>
<stop offset="1" stop-color="#FE7062"/>
</linearGradient>
<linearGradient id="paint33_linear_20_1977" x1="-17761" y1="13416.4" x2="-16679.8" y2="13416.4" gradientUnits="userSpaceOnUse">
<stop stop-color="#FEBBBA"/>
<stop offset="1" stop-color="#FF928E"/>
</linearGradient>
<linearGradient id="paint34_linear_20_1977" x1="-13898.4" y1="17754.6" x2="-13913.9" y2="19747.2" gradientUnits="userSpaceOnUse">
<stop stop-color="#FEBBBA"/>
<stop offset="1" stop-color="#FF928E"/>
</linearGradient>
<linearGradient id="paint35_linear_20_1977" x1="9070.02" y1="26211.3" x2="9877.43" y2="27153.3" gradientUnits="userSpaceOnUse">
<stop stop-color="#FEBBBA"/>
<stop offset="1" stop-color="#FF928E"/>
</linearGradient>
<linearGradient id="paint36_linear_20_1977" x1="17662.1" y1="42291.3" x2="16400.4" y2="42112.9" gradientUnits="userSpaceOnUse">
<stop stop-color="#09005D"/>
<stop offset="1" stop-color="#1A0F91"/>
</linearGradient>
<linearGradient id="paint37_linear_20_1977" x1="3579.05" y1="9656.32" x2="3363.41" y2="9450.6" gradientUnits="userSpaceOnUse">
<stop stop-color="#FEBBBA"/>
<stop offset="1" stop-color="#FF928E"/>
</linearGradient>
<linearGradient id="paint38_linear_20_1977" x1="-5934.93" y1="7486.06" x2="-5796.35" y2="7486.06" gradientUnits="userSpaceOnUse">
<stop stop-color="#FEBBBA"/>
<stop offset="1" stop-color="#FF928E"/>
</linearGradient>
<linearGradient id="paint39_linear_20_1977" x1="-141559" y1="94762.3" x2="-225897" y2="223625" gradientUnits="userSpaceOnUse">
<stop stop-color="#09005D"/>
<stop offset="1" stop-color="#1A0F91"/>
</linearGradient>
<linearGradient id="paint40_linear_20_1977" x1="-18216.3" y1="18882.3" x2="-16327.9" y2="16185.8" gradientUnits="userSpaceOnUse">
<stop stop-color="#09005D"/>
<stop offset="1" stop-color="#1A0F91"/>
</linearGradient>
<linearGradient id="paint41_linear_20_1977" x1="-20971.2" y1="30801.9" x2="-34639.8" y2="47455.4" gradientUnits="userSpaceOnUse">
<stop stop-color="#FEBBBA"/>
<stop offset="1" stop-color="#FF928E"/>
</linearGradient>
<linearGradient id="paint42_linear_20_1977" x1="150207" y1="63798.5" x2="166183" y2="109737" gradientUnits="userSpaceOnUse">
<stop stop-color="#4F52FF"/>
<stop offset="1" stop-color="#4042E2"/>
</linearGradient>
<linearGradient id="paint43_linear_20_1977" x1="148347" y1="66128" x2="164323" y2="112066" gradientUnits="userSpaceOnUse">
<stop stop-color="#4F52FF"/>
<stop offset="1" stop-color="#4042E2"/>
</linearGradient>
<linearGradient id="paint44_linear_20_1977" x1="-14788" y1="4880.16" x2="-14974.2" y2="5434.57" gradientUnits="userSpaceOnUse">
<stop stop-color="#FEBBBA"/>
<stop offset="1" stop-color="#FF928E"/>
</linearGradient>
<linearGradient id="paint45_linear_20_1977" x1="445128" y1="-109034" x2="339840" y2="-10830" gradientUnits="userSpaceOnUse">
<stop stop-color="#09005D"/>
<stop offset="1" stop-color="#1A0F91"/>
</linearGradient>
<linearGradient id="paint46_linear_20_1977" x1="-69966.8" y1="-187763" x2="-75556.6" y2="-184934" gradientUnits="userSpaceOnUse">
<stop stop-color="#FF928E"/>
<stop offset="1" stop-color="#FE7062"/>
</linearGradient>
<linearGradient id="paint47_linear_20_1977" x1="-19996.5" y1="-69587.3" x2="-23462.8" y2="-61077.9" gradientUnits="userSpaceOnUse">
<stop stop-color="#FF928E"/>
<stop offset="1" stop-color="#FE7062"/>
</linearGradient>
<linearGradient id="paint48_linear_20_1977" x1="7367.93" y1="20958.5" x2="5141.21" y2="14942" gradientUnits="userSpaceOnUse">
<stop stop-color="#09005D"/>
<stop offset="1" stop-color="#1A0F91"/>
</linearGradient>
</defs>
</svg>
