<svg width="16" height="16" viewBox="0 0 16 16" fill="none" xmlns="http://www.w3.org/2000/svg">
<g opacity="0.65" clip-path="url(#clip0_20_1940)">
<path d="M10.7914 2.34073C10.7277 2.28043 10.6434 2.24683 10.5557 2.24683C10.468 2.24683 10.3837 2.28043 10.32 2.34073L2.71136 9.9494C2.64887 10.0119 2.61377 10.0967 2.61377 10.1851C2.61377 10.2735 2.64887 10.3582 2.71136 10.4207L5.5647 13.2741C5.62721 13.3366 5.71198 13.3717 5.80036 13.3717C5.88875 13.3717 5.97352 13.3366 6.03603 13.2741L13.6447 5.66673C13.7072 5.60422 13.7423 5.51945 13.7423 5.43107C13.7423 5.34268 13.7072 5.25791 13.6447 5.1954L10.7914 2.34073Z" fill="#202427"/>
<path d="M1.99987 11.1399C1.95948 11.0998 1.90949 11.0706 1.85465 11.0553C1.79981 11.04 1.74195 11.0389 1.6866 11.0523C1.63125 11.0657 1.58024 11.093 1.53845 11.1317C1.49666 11.1703 1.46547 11.2191 1.44787 11.2732L0.0211992 15.5532C0.00151331 15.6119 -0.00142946 15.675 0.0127008 15.7353C0.0268312 15.7956 0.0574759 15.8507 0.101199 15.8946C0.145311 15.9379 0.20044 15.9683 0.26061 15.9825C0.32078 15.9967 0.383694 15.9942 0.442533 15.9752L4.72253 14.5492C4.77681 14.5317 4.82568 14.5005 4.86446 14.4586C4.90323 14.4168 4.93062 14.3657 4.944 14.3102C4.95738 14.2548 4.9563 14.1968 4.94087 14.1419C4.92544 14.087 4.89617 14.0369 4.85587 13.9966L1.99987 11.1399Z" fill="#202427"/>
<path d="M15.3121 0.678113C14.8641 0.250679 14.2687 0.012207 13.6495 0.012207C13.0303 0.012207 12.4348 0.250679 11.9868 0.678113L11.5121 1.15345C11.4497 1.21596 11.4146 1.30072 11.4146 1.38911C11.4146 1.4775 11.4497 1.56227 11.5121 1.62478L14.3648 4.47811C14.4273 4.5406 14.5121 4.57571 14.6005 4.57571C14.6889 4.57571 14.7736 4.5406 14.8361 4.47811L15.3121 4.00011C15.7516 3.55903 15.9984 2.96176 15.9984 2.33911C15.9984 1.71647 15.7516 1.1192 15.3121 0.678113Z" fill="#202427"/>
</g>
<defs>
<clipPath id="clip0_20_1940">
<rect width="16" height="16" fill="white"/>
</clipPath>
</defs>
</svg>
